# Blender v2.93.5 OBJ File: ''
# www.blender.org
mtllib money_bag.mtl
o SM_Prop_TrashBag_02_Mesh
v 0.497812 0.375268 -0.176699
v 0.381807 0.350886 -0.223818
v 0.262407 0.350886 -0.174578
v 0.203027 0.376239 -0.005152
v 0.262407 0.350886 0.124856
v 0.387697 0.382955 0.180296
v 0.501207 0.350886 0.124856
v 0.550661 0.350886 -0.022009
v 0.483987 0.539444 -0.136652
v 0.382013 0.569168 -0.172739
v 0.272432 0.546825 -0.127352
v 0.230058 0.569111 -0.021429
v 0.276041 0.557003 0.089246
v 0.385240 0.542449 0.137998
v 0.493860 0.521417 0.089544
v 0.535058 0.560154 -0.018694
v 0.467351 0.270309 -0.131522
v 0.381937 0.270309 -0.164646
v 0.381937 0.245400 -0.022269
v 0.296522 0.270309 -0.131522
v 0.261138 0.270309 -0.022478
v 0.296522 0.270309 0.081640
v 0.381937 0.270309 0.114764
v 0.467351 0.270309 0.081640
v 0.502727 0.270309 -0.022478
v 0.396261 0.654866 -0.035772
v 0.379556 0.657142 -0.043238
v 0.363096 0.657446 -0.036558
v 0.356481 0.655910 -0.019736
v 0.363683 0.652577 -0.002364
v 0.380441 0.649832 0.005247
v 0.396978 0.648977 -0.001266
v 0.403493 0.651312 -0.018332
v 0.418687 0.729078 -0.062512
v 0.372270 0.727321 -0.077606
v 0.357692 0.711562 -0.040346
v 0.318357 0.716206 -0.019552
v 0.367404 0.711392 0.007739
v 0.384477 0.709975 0.037254
v 0.423906 0.713858 0.019467
v 0.415308 0.711880 -0.021006
v 0.407913 0.735206 -0.052420
v 0.376421 0.734685 -0.064270
v 0.365911 0.722650 -0.031501
v 0.335016 0.726700 -0.019099
v 0.369756 0.722426 0.000588
v 0.381418 0.721551 0.024017
v 0.411773 0.724262 0.010409
v 0.403898 0.721848 -0.020571
v 0.379945 0.661582 -0.019133
v 0.500488 0.606231 -0.017287
v 0.467861 0.593144 0.068953
v 0.385240 0.593144 0.103024
v 0.315345 0.624485 0.062446
v 0.265384 0.618221 -0.020945
v 0.299400 0.619862 -0.103694
v 0.382013 0.619862 -0.137765
v 0.464649 0.619625 -0.103622
v 0.580265 0.443149 -0.021849
v 0.519550 0.460325 0.115897
v 0.383066 0.435433 0.178238
v 0.241981 0.441876 0.118179
v 0.183662 0.443630 -0.022017
v 0.241737 0.443630 -0.161598
v 0.381937 0.443630 -0.219418
v 0.522129 0.443630 -0.161598
vt 0.079247 0.278792
vt 0.079247 0.278792
vt 0.079247 0.278792
vt 0.079247 0.278792
vt 0.079247 0.278792
vt 0.079247 0.278792
vt 0.079247 0.278792
vt 0.079247 0.278792
vt 0.079247 0.278792
vt 0.079247 0.278792
vt 0.079247 0.278792
vt 0.079247 0.278792
vt 0.079247 0.278792
vt 0.079247 0.278792
vt 0.079247 0.278792
vt 0.079247 0.278792
vt 0.079247 0.278792
vt 0.079247 0.278792
vt 0.079247 0.278792
vt 0.079247 0.278792
vt 0.079247 0.278792
vt 0.079247 0.278792
vt 0.079247 0.278792
vt 0.079247 0.278792
vt 0.079247 0.278792
vt 0.079247 0.278792
vt 0.079247 0.278792
vt 0.079247 0.278792
vt 0.079247 0.278792
vt 0.079247 0.278792
vt 0.079247 0.278792
vt 0.079247 0.278792
vt 0.079247 0.278792
vt 0.079247 0.278792
vt 0.079247 0.278792
vt 0.079247 0.278792
vt 0.079247 0.278792
vt 0.079247 0.278792
vt 0.079247 0.278792
vt 0.079247 0.278792
vt 0.079247 0.278792
vt 0.079247 0.278792
vt 0.079247 0.278792
vt 0.079247 0.278792
vt 0.079247 0.278792
vt 0.079247 0.278792
vt 0.079247 0.278792
vt 0.079247 0.278792
vt 0.079247 0.278792
vt 0.079247 0.278792
vt 0.079247 0.278792
vt 0.079247 0.278792
vt 0.079247 0.278792
vt 0.079247 0.278792
vt 0.079247 0.278792
vt 0.079247 0.278792
vt 0.079247 0.278792
vt 0.079247 0.278792
vt 0.079247 0.278792
vt 0.079247 0.278792
vt 0.079247 0.278792
vt 0.079247 0.278792
vt 0.079247 0.278792
vt 0.079247 0.278792
vt 0.079247 0.278792
vt 0.079247 0.278792
vn 0.3739 0.0553 -0.9258
vn -0.3809 0.0444 -0.9236
vn -0.9145 -0.2366 -0.3282
vn -0.9093 -0.1721 0.3788
vn -0.3967 -0.0134 0.9179
vn 0.4267 0.0254 0.9041
vn 0.9095 -0.2003 0.3642
vn 0.8944 -0.2661 -0.3596
vn 0.0667 -0.9828 -0.1720
vn -0.0667 -0.9828 -0.1720
vn -0.2014 -0.9773 -0.0654
vn -0.2016 -0.9771 0.0685
vn -0.0692 -0.9815 0.1784
vn 0.0692 -0.9815 0.1784
vn 0.2016 -0.9771 0.0685
vn 0.2014 -0.9773 -0.0653
vn 0.3720 -0.5005 -0.7817
vn -0.3103 -0.5554 -0.7716
vn -0.8541 -0.4567 -0.2491
vn -0.8218 -0.4969 0.2788
vn -0.2691 -0.5021 0.8219
vn 0.2784 -0.5138 0.8115
vn 0.8239 -0.4936 0.2785
vn 0.8419 -0.4332 -0.3217
vn 0.3794 0.4701 -0.7969
vn -0.3841 0.4624 -0.7991
vn -0.7942 0.4789 -0.3740
vn -0.7372 0.5579 0.3812
vn -0.2731 0.5154 0.8123
vn 0.3953 0.4479 0.8019
vn 0.7775 0.4681 0.4199
vn 0.8168 0.4479 -0.3635
vn 0.3058 -0.3981 -0.8649
vn -0.7412 -0.2650 -0.6168
vn -0.6221 -0.2600 -0.7385
vn -0.6244 -0.2444 0.7418
vn -0.7368 -0.1824 0.6510
vn 0.3779 -0.4377 0.8158
vn 0.9563 -0.2901 -0.0364
vn 0.9481 -0.2755 -0.1590
vn 0.1354 0.8747 -0.4654
vn -0.8008 0.5969 -0.0500
vn -0.2688 0.6254 -0.7325
vn -0.3612 0.5526 0.7511
vn -0.8046 0.3836 0.4533
vn 0.2038 0.7630 0.6134
vn 0.6820 0.7033 -0.2005
vn 0.6530 0.6735 0.3464
vn -0.3145 0.4877 0.8144
vn 0.8794 0.2801 0.3849
vn 0.3890 0.2679 0.8814
vn 0.4948 0.3418 -0.7989
vn 0.8634 0.2805 -0.4193
vn -0.3829 0.5457 -0.7454
vn -0.9084 0.3659 0.2024
vn -0.9283 0.3699 0.0381
vn 0.4032 0.8704 0.2827
vn 0.2037 0.8534 0.4798
vn 0.0787 0.8751 0.4774
vn -0.3541 0.9189 0.1741
vn -0.3871 0.9130 -0.1288
vn -0.1488 0.9176 -0.3686
vn 0.1662 0.9253 -0.3408
vn 0.4270 0.9038 -0.0296
vn 0.8405 0.3843 0.3819
vn 0.3749 0.3863 0.8428
vn -0.3529 0.3302 0.8755
vn -0.8639 0.3334 0.3776
vn -0.8566 0.3470 -0.3820
vn -0.3841 0.3534 -0.8530
vn 0.3759 0.3432 -0.8608
vn 0.8405 0.3801 -0.3860
usemtl lambert1
s 1
f 1/1/1 2/2/1 65/3/1 66/4/1
f 2/2/2 3/5/2 64/6/2 65/3/2
f 3/5/3 4/7/3 63/8/3 64/6/3
f 4/7/4 5/9/4 62/10/4 63/8/4
f 5/9/5 6/11/5 61/12/5 62/10/5
f 6/11/6 7/13/6 60/14/6 61/12/6
f 7/13/7 8/15/7 59/16/7 60/14/7
f 8/15/8 1/1/8 66/4/8 59/16/8
f 18/17/9 17/18/9 19/19/9
f 20/20/10 18/17/10 19/19/10
f 21/21/11 20/20/11 19/19/11
f 22/22/12 21/21/12 19/19/12
f 23/23/13 22/22/13 19/19/13
f 24/24/14 23/23/14 19/19/14
f 25/25/15 24/24/15 19/19/15
f 17/18/16 25/25/16 19/19/16
f 2/2/17 1/1/17 17/18/17 18/17/17
f 3/5/18 2/2/18 18/17/18 20/20/18
f 4/7/19 3/5/19 20/20/19 21/21/19
f 5/9/20 4/7/20 21/21/20 22/22/20
f 6/11/21 5/9/21 22/22/21 23/23/21
f 7/13/22 6/11/22 23/23/22 24/24/22
f 8/15/23 7/13/23 24/24/23 25/25/23
f 1/1/24 8/15/24 25/25/24 17/18/24
f 9/26/25 10/27/25 57/28/25 58/29/25
f 10/27/26 11/30/26 56/31/26 57/28/26
f 11/30/27 12/32/27 55/33/27 56/31/27
f 12/32/28 13/34/28 54/35/28 55/33/28
f 13/34/29 14/36/29 53/37/29 54/35/29
f 14/36/30 15/38/30 52/39/30 53/37/30
f 15/38/31 16/40/31 51/41/31 52/39/31
f 16/40/32 9/26/32 58/29/32 51/41/32
f 26/42/33 27/43/33 35/44/33 34/45/33
f 27/43/34 28/46/34 36/47/34 35/44/34
f 28/46/35 29/48/35 37/49/35 36/47/35
f 29/48/36 30/50/36 38/51/36 37/49/36
f 30/50/37 31/52/37 39/53/37 38/51/37
f 31/52/38 32/54/38 40/55/38 39/53/38
f 32/54/39 33/56/39 41/57/39 40/55/39
f 33/56/40 26/42/40 34/45/40 41/57/40
f 34/45/41 35/44/41 43/58/41 42/59/41
f 35/44/42 36/47/42 44/60/42 43/58/42
f 36/47/43 37/49/43 45/61/43 44/60/43
f 37/49/44 38/51/44 46/62/44 45/61/44
f 38/51/45 39/53/45 47/63/45 46/62/45
f 39/53/46 40/55/46 48/64/46 47/63/46
f 40/55/47 41/57/47 49/65/47 48/64/47
f 41/57/48 34/45/48 42/59/48 49/65/48
f 42/59/49 43/58/49 50/66/49
f 43/58/50 44/60/50 50/66/50
f 44/60/51 45/61/51 50/66/51
f 45/61/52 46/62/52 50/66/52
f 46/62/53 47/63/53 50/66/53
f 47/63/54 48/64/54 50/66/54
f 48/64/55 49/65/55 50/66/55
f 49/65/56 42/59/56 50/66/56
f 52/39/57 51/41/57 33/56/57 32/54/57
f 53/37/58 52/39/58 32/54/58 31/52/58
f 54/35/59 53/37/59 31/52/59 30/50/59
f 55/33/60 54/35/60 30/50/60 29/48/60
f 56/31/61 55/33/61 29/48/61 28/46/61
f 57/28/62 56/31/62 28/46/62 27/43/62
f 58/29/63 57/28/63 27/43/63 26/42/63
f 51/41/64 58/29/64 26/42/64 33/56/64
f 60/14/65 59/16/65 16/40/65 15/38/65
f 61/12/66 60/14/66 15/38/66 14/36/66
f 62/10/67 61/12/67 14/36/67 13/34/67
f 63/8/68 62/10/68 13/34/68 12/32/68
f 64/6/69 63/8/69 12/32/69 11/30/69
f 65/3/70 64/6/70 11/30/70 10/27/70
f 66/4/71 65/3/71 10/27/71 9/26/71
f 59/16/72 66/4/72 9/26/72 16/40/72
