# Blender v3.0.0 OBJ File: ''
# www.blender.org
mtllib sphere.mtl
o Sphere
v 0.000000 0.433013 -0.250000
v 0.000000 0.250000 -0.433013
v 0.000000 -0.000000 -0.500000
v 0.000000 -0.250000 -0.433013
v 0.000000 -0.433013 -0.250000
v 0.216506 0.433013 -0.125000
v 0.375000 0.250000 -0.216506
v 0.433012 -0.000000 -0.250000
v 0.375000 -0.250000 -0.216506
v 0.216506 -0.433013 -0.125000
v 0.216506 0.433013 0.125000
v 0.375000 0.250000 0.216506
v 0.433012 -0.000000 0.250000
v 0.375000 -0.250000 0.216506
v 0.216506 -0.433013 0.125000
v -0.000000 0.433013 0.250000
v -0.000000 0.250000 0.433013
v -0.000000 -0.000000 0.500000
v -0.000000 -0.250000 0.433013
v -0.000000 -0.433013 0.250000
v 0.000000 -0.500000 0.000000
v -0.000000 0.500000 0.000000
v -0.216506 0.433013 0.125000
v -0.375000 0.250000 0.216506
v -0.433012 -0.000000 0.250000
v -0.375000 -0.250000 0.216506
v -0.216506 -0.433013 0.125000
v -0.216506 0.433013 -0.125000
v -0.375000 0.250000 -0.216506
v -0.433012 -0.000000 -0.250000
v -0.375000 -0.250000 -0.216506
v -0.216506 -0.433013 -0.125000
vt 0.000000 0.999999
vt 0.000000 0.999999
vt 0.000000 0.999999
vt 0.000000 0.999999
vt 0.000000 0.999999
vt 0.000000 0.999999
vt 0.000000 0.999999
vt 0.000000 0.999999
vt 0.000000 0.999999
vt 0.000000 0.999999
vt 0.000000 0.999999
vt 0.000000 0.999999
vt 0.000000 0.999999
vt 0.000000 0.999999
vt 0.000000 0.999999
vt 0.000000 0.999999
vt 0.000000 0.999999
vt 0.000000 0.999999
vt 0.000000 0.999999
vt 0.000000 0.999999
vt 0.000000 0.999999
vt 0.000000 0.999999
vt 0.000000 0.999999
vt 0.000000 0.999999
vt 0.000000 0.999999
vt 0.000000 0.999999
vt 0.000000 0.999999
vt 0.000000 0.999999
vt 0.000000 0.999999
vt 0.000000 0.999999
vt 0.000000 0.999999
vt 0.000000 0.999999
vn 0.4871 -0.2260 -0.8436
vn 0.3780 0.6547 -0.6547
vn 0.3780 -0.6547 -0.6547
vn 0.4871 0.2260 -0.8436
vn 0.1478 0.9553 -0.2560
vn 0.1478 -0.9553 -0.2560
vn 0.7559 -0.6547 0.0000
vn 0.9741 0.2260 0.0000
vn 0.2956 0.9553 0.0000
vn 0.2956 -0.9553 0.0000
vn 0.9741 -0.2260 0.0000
vn 0.7559 0.6547 0.0000
vn 0.3780 -0.6547 0.6547
vn 0.4871 0.2260 0.8436
vn 0.1478 0.9553 0.2560
vn 0.1478 -0.9553 0.2560
vn 0.4871 -0.2260 0.8436
vn 0.3780 0.6547 0.6547
vn -0.3780 -0.6547 0.6547
vn -0.4871 0.2260 0.8436
vn -0.1478 0.9553 0.2560
vn -0.1478 -0.9553 0.2560
vn -0.4871 -0.2260 0.8436
vn -0.3780 0.6547 0.6547
vn -0.9741 0.2260 -0.0000
vn -0.2956 0.9553 -0.0000
vn -0.2956 -0.9553 -0.0000
vn -0.9741 -0.2260 -0.0000
vn -0.7559 0.6547 -0.0000
vn -0.7559 -0.6547 -0.0000
vn -0.1478 0.9553 -0.2560
vn -0.1478 -0.9553 -0.2560
vn -0.4871 -0.2260 -0.8436
vn -0.3780 0.6547 -0.6547
vn -0.3780 -0.6547 -0.6547
vn -0.4871 0.2260 -0.8436
usemtl Material
s off
f 4/1/1 3/2/1 8/3/1 9/4/1
f 2/5/2 1/6/2 6/7/2 7/8/2
f 5/9/3 4/1/3 9/4/3 10/10/3
f 3/2/4 2/5/4 7/8/4 8/3/4
f 1/6/5 22/11/5 6/7/5
f 21/12/6 5/9/6 10/10/6
f 10/10/7 9/4/7 14/13/7 15/14/7
f 8/3/8 7/8/8 12/15/8 13/16/8
f 6/7/9 22/11/9 11/17/9
f 21/12/10 10/10/10 15/14/10
f 9/4/11 8/3/11 13/16/11 14/13/11
f 7/8/12 6/7/12 11/17/12 12/15/12
f 15/14/13 14/13/13 19/18/13 20/19/13
f 13/16/14 12/15/14 17/20/14 18/21/14
f 11/17/15 22/11/15 16/22/15
f 21/12/16 15/14/16 20/19/16
f 14/13/17 13/16/17 18/21/17 19/18/17
f 12/15/18 11/17/18 16/22/18 17/20/18
f 20/19/19 19/18/19 26/23/19 27/24/19
f 18/21/20 17/20/20 24/25/20 25/26/20
f 16/22/21 22/11/21 23/27/21
f 21/12/22 20/19/22 27/24/22
f 19/18/23 18/21/23 25/26/23 26/23/23
f 17/20/24 16/22/24 23/27/24 24/25/24
f 25/26/25 24/25/25 29/28/25 30/29/25
f 23/27/26 22/11/26 28/30/26
f 21/12/27 27/24/27 32/31/27
f 26/23/28 25/26/28 30/29/28 31/32/28
f 24/25/29 23/27/29 28/30/29 29/28/29
f 27/24/30 26/23/30 31/32/30 32/31/30
f 28/30/31 22/11/31 1/6/31
f 21/12/32 32/31/32 5/9/32
f 31/32/33 30/29/33 3/2/33 4/1/33
f 29/28/34 28/30/34 1/6/34 2/5/34
f 32/31/35 31/32/35 4/1/35 5/9/35
f 30/29/36 29/28/36 2/5/36 3/2/36
