# Blender v2.93.5 OBJ File: ''
# www.blender.org
mtllib bullet.mtl
o hulle_Cube
v 0.005190 -0.004393 0.000423
v -0.003573 -0.004393 0.001054
v -0.005770 -0.004393 -0.029440
v 0.002993 -0.004393 -0.030071
v 0.005190 0.004393 0.000423
v 0.002993 0.004393 -0.030071
v -0.005770 0.004393 -0.029440
v -0.003573 0.004393 0.001054
v 0.002017 0.000665 0.008257
v 0.002017 -0.000665 0.008257
v 0.000690 -0.000665 0.008353
v 0.000690 0.000665 0.008353
vt 0.000000 0.000000
vt 0.000000 0.000000
vt 0.000000 0.000000
vt 0.000000 0.000000
vt 0.000000 0.000000
vt 0.000000 0.000000
vt 0.000000 0.000000
vt 0.000000 0.000000
vt 0.000000 0.000000
vt 0.000000 0.000000
vt 0.000000 0.000000
vt 0.000000 0.000000
vn 0.6989 -0.6816 0.2167
vn -0.6607 -0.6816 0.3147
vn -0.6173 -0.5774 -0.5344
vn 0.5344 -0.5774 -0.6173
vn 0.6989 0.6816 0.2167
vn 0.5344 0.5774 -0.6173
vn -0.6173 0.5774 -0.5344
vn -0.6607 0.6816 0.3147
vn 0.4835 0.4274 0.7639
vn 0.4835 -0.4274 0.7639
vn -0.3690 -0.4274 0.8253
vn -0.3690 0.4274 0.8253
usemtl Material.004
s 1
f 1/1/1 2/2/2 3/3/3 4/4/4
f 5/5/5 6/6/6 7/7/7 8/8/8
f 2/2/2 8/8/8 7/7/7 3/3/3
f 3/3/3 7/7/7 6/6/6 4/4/4
f 5/5/5 1/1/1 4/4/4 6/6/6
f 1/1/1 5/5/5 9/9/9 10/10/10
f 8/8/8 2/2/2 11/11/11 12/12/12
f 5/5/5 8/8/8 12/12/12 9/9/9
f 2/2/2 1/1/1 10/10/10 11/11/11
f 10/10/10 9/9/9 12/12/12 11/11/11
