# Blender v2.93.5 OBJ File: ''
# www.blender.org
mtllib bullet.mtl
o hulle_Cube
v 0.004317 -0.004393 0.000779
v -0.004468 -0.004393 0.000806
v -0.004565 -0.004393 -0.029767
v 0.004221 -0.004393 -0.029794
v 0.004317 0.004393 0.000779
v 0.004221 0.004393 -0.029794
v -0.004565 0.004393 -0.029767
v -0.004468 0.004393 0.000806
v 0.000614 0.000665 0.008376
v 0.000614 -0.000665 0.008376
v -0.000717 -0.000665 0.008381
v -0.000717 0.000665 0.008381
vt 0.714640 0.871210
vt 0.714640 0.871210
vt 0.714640 0.871210
vt 0.714640 0.871210
vt 0.714640 0.871210
vt 0.714640 0.871210
vt 0.714640 0.871210
vt 0.714640 0.871210
vt 0.714640 0.871210
vt 0.714640 0.871210
vt 0.714640 0.871210
vt 0.714640 0.871210
vn 0.6824 -0.6816 0.2642
vn -0.6807 -0.6816 0.2685
vn -0.5792 -0.5773 -0.5755
vn 0.5755 -0.5774 -0.5792
vn 0.6824 0.6816 0.2642
vn 0.5755 0.5774 -0.5792
vn -0.5792 0.5773 -0.5755
vn -0.6807 0.6816 0.2685
vn 0.4300 0.4274 0.7953
vn 0.4300 -0.4274 0.7953
vn -0.4248 -0.4274 0.7980
vn -0.4248 0.4274 0.7980
usemtl Material.004
s 1
f 1/1/1 2/2/2 3/3/3 4/4/4
f 5/5/5 6/6/6 7/7/7 8/8/8
f 2/2/2 8/8/8 7/7/7 3/3/3
f 3/3/3 7/7/7 6/6/6 4/4/4
f 5/5/5 1/1/1 4/4/4 6/6/6
f 1/1/1 5/5/5 9/9/9 10/10/10
f 8/8/8 2/2/2 11/11/11 12/12/12
f 5/5/5 8/8/8 12/12/12 9/9/9
f 2/2/2 1/1/1 10/10/10 11/11/11
f 10/10/10 9/9/9 12/12/12 11/11/11
