# Blender v2.93.5 OBJ File: ''
# www.blender.org
mtllib bank_inside_alarm_bottom.mtl
o Cube.001
v 0.100000 1.000000 -0.100000
v -0.100000 1.000000 -0.100000
v -0.100000 1.000000 0.100000
v 0.100000 1.000000 0.100000
v 0.100000 -0.000000 0.100000
v -0.100000 -0.000000 0.100000
v -0.100000 0.000000 -0.100000
v 0.100000 0.000000 -0.100000
vt 0.385443 0.494324
vt 0.385811 0.495425
vt 0.384709 0.495793
vt 0.384342 0.494691
vt 0.383975 0.493590
vt 0.383241 0.495058
vt 0.382873 0.493957
vt 0.387279 0.492488
vt 0.387646 0.493590
vt 0.386545 0.493957
vt 0.386178 0.492855
vt 0.384709 0.492121
vt 0.385076 0.493223
vt 0.383608 0.492488
vn 0.0000 1.0000 0.0000
vn 0.0000 -0.0000 1.0000
vn -1.0000 0.0000 0.0000
vn 0.0000 -1.0000 -0.0000
vn 1.0000 -0.0000 0.0000
vn 0.0000 0.0000 -1.0000
usemtl Material.001
s 1
f 1/1/1 2/2/1 3/3/1 4/4/1
f 5/5/2 4/4/2 3/6/2 6/7/2
f 6/8/3 3/9/3 2/10/3 7/11/3
f 7/12/4 8/13/4 5/5/4 6/14/4
f 8/13/5 1/1/5 4/4/5 5/5/5
f 7/11/6 2/10/6 1/1/6 8/13/6
