# Blender v2.93.5 OBJ File: ''
# www.blender.org
mtllib bank_inside_glass.mtl
o SM_Prop_Window_01.002_Mesh.001
v 7.806891 2.600726 -6.256494
v 7.806891 3.370045 -6.256494
v 7.119529 3.370045 -6.256494
v 7.119529 2.600726 -6.256494
v 7.119529 1.881569 -6.256495
v 7.806891 1.881569 -6.256495
v 7.806891 2.460590 -6.256494
v 7.119529 2.474685 -6.256494
vt 0.619909 0.008373
vt 0.715122 0.008373
vt 0.715122 0.103586
vt 0.619909 0.103586
vt 0.619909 0.008373
vt 0.715122 0.008373
vt 0.715122 0.103586
vt 0.619909 0.103586
vn 0.0000 0.0000 1.0000
usemtl M.002
s 1
f 1/1/1 2/2/1 3/3/1 4/4/1
f 5/5/1 6/6/1 7/7/1 8/8/1
o SM_Prop_Window_01.002_Mesh.005
v 9.806891 2.600726 -6.256494
v 9.806891 3.370045 -6.256494
v 9.119529 3.370045 -6.256494
v 9.119529 2.600726 -6.256494
v 9.119529 1.881569 -6.256495
v 9.806891 1.881569 -6.256495
v 9.806891 2.460590 -6.256494
v 9.119529 2.474685 -6.256494
vt 0.619909 0.008373
vt 0.715122 0.008373
vt 0.715122 0.103586
vt 0.619909 0.103586
vt 0.619909 0.008373
vt 0.715122 0.008373
vt 0.715122 0.103586
vt 0.619909 0.103586
vn 0.0000 0.0000 1.0000
usemtl M.006
s 1
f 9/9/2 10/10/2 11/11/2 12/12/2
f 13/13/2 14/14/2 15/15/2 16/16/2
o SM_Prop_Window_01.002_Mesh.006
v 9.806891 5.100726 -6.256494
v 9.806891 5.870045 -6.256494
v 9.119529 5.870045 -6.256494
v 9.119529 5.100726 -6.256494
v 9.119529 4.381569 -6.256495
v 9.806891 4.381569 -6.256495
v 9.806891 4.960590 -6.256494
v 9.119529 4.974685 -6.256494
vt 0.619909 0.008373
vt 0.715122 0.008373
vt 0.715122 0.103586
vt 0.619909 0.103586
vt 0.619909 0.008373
vt 0.715122 0.008373
vt 0.715122 0.103586
vt 0.619909 0.103586
vn 0.0000 0.0000 1.0000
usemtl M.007
s 1
f 17/17/3 18/18/3 19/19/3 20/20/3
f 21/21/3 22/22/3 23/23/3 24/24/3
o SM_Prop_Window_01.002_Mesh.007
v 7.806891 5.100726 -6.256494
v 7.806891 5.870045 -6.256494
v 7.119529 5.870045 -6.256494
v 7.119529 5.100726 -6.256494
v 7.119529 4.381569 -6.256495
v 7.806891 4.381569 -6.256495
v 7.806891 4.960590 -6.256494
v 7.119529 4.974685 -6.256494
vt 0.619909 0.008373
vt 0.715122 0.008373
vt 0.715122 0.103586
vt 0.619909 0.103586
vt 0.619909 0.008373
vt 0.715122 0.008373
vt 0.715122 0.103586
vt 0.619909 0.103586
vn 0.0000 0.0000 1.0000
usemtl M.008
s 1
f 25/25/4 26/26/4 27/27/4 28/28/4
f 29/29/4 30/30/4 31/31/4 32/32/4
o SM_Prop_Window_01.002_Mesh.016
v -9.193109 2.600726 -6.256494
v -9.193109 3.370045 -6.256494
v -9.880471 3.370045 -6.256494
v -9.880471 2.600726 -6.256494
v -9.880471 1.881569 -6.256495
v -9.193109 1.881569 -6.256495
v -9.193109 2.460590 -6.256494
v -9.880471 2.474685 -6.256494
vt 0.619909 0.008373
vt 0.715122 0.008373
vt 0.715122 0.103586
vt 0.619909 0.103586
vt 0.619909 0.008373
vt 0.715122 0.008373
vt 0.715122 0.103586
vt 0.619909 0.103586
vn 0.0000 0.0000 1.0000
usemtl M.016
s 1
f 33/33/5 34/34/5 35/35/5 36/36/5
f 37/37/5 38/38/5 39/39/5 40/40/5
o SM_Prop_Window_01.002_Mesh.012
v -7.193109 2.600726 -6.256494
v -7.193109 3.370045 -6.256494
v -7.880471 3.370045 -6.256494
v -7.880471 2.600726 -6.256494
v -7.880471 1.881569 -6.256495
v -7.193109 1.881569 -6.256495
v -7.193109 2.460590 -6.256494
v -7.880471 2.474685 -6.256494
vt 0.619909 0.008373
vt 0.715122 0.008373
vt 0.715122 0.103586
vt 0.619909 0.103586
vt 0.619909 0.008373
vt 0.715122 0.008373
vt 0.715122 0.103586
vt 0.619909 0.103586
vn 0.0000 0.0000 1.0000
usemtl M.012
s 1
f 41/41/6 42/42/6 43/43/6 44/44/6
f 45/45/6 46/46/6 47/47/6 48/48/6
o SM_Prop_Window_01.002_Mesh.009
v -9.193109 5.100726 -6.256494
v -9.193109 5.870045 -6.256494
v -9.880471 5.870045 -6.256494
v -9.880471 5.100726 -6.256494
v -9.880471 4.381569 -6.256495
v -9.193109 4.381569 -6.256495
v -9.193109 4.960590 -6.256494
v -9.880471 4.974685 -6.256494
vt 0.619909 0.008373
vt 0.715122 0.008373
vt 0.715122 0.103586
vt 0.619909 0.103586
vt 0.619909 0.008373
vt 0.715122 0.008373
vt 0.715122 0.103586
vt 0.619909 0.103586
vn 0.0000 0.0000 1.0000
usemtl M.010
s 1
f 49/49/7 50/50/7 51/51/7 52/52/7
f 53/53/7 54/54/7 55/55/7 56/56/7
o SM_Prop_Window_01.002_Mesh.032
v -9.806890 2.600726 6.256495
v -9.806890 3.370045 6.256495
v -9.119528 3.370045 6.256495
v -9.119528 2.600726 6.256495
v -9.119528 1.881569 6.256495
v -9.806890 1.881569 6.256495
v -9.806890 2.460590 6.256495
v -9.119528 2.474685 6.256495
vt 0.619909 0.008373
vt 0.715122 0.008373
vt 0.715122 0.103586
vt 0.619909 0.103586
vt 0.619909 0.008373
vt 0.715122 0.008373
vt 0.715122 0.103586
vt 0.619909 0.103586
vn 0.0000 0.0000 -1.0000
usemtl M.032
s 1
f 57/57/8 58/58/8 59/59/8 60/60/8
f 61/61/8 62/62/8 63/63/8 64/64/8
o SM_Prop_Window_01.002_Mesh.028
v -7.806890 2.600726 6.256495
v -7.806890 3.370045 6.256495
v -7.119528 3.370045 6.256495
v -7.119528 2.600726 6.256495
v -7.119528 1.881569 6.256495
v -7.806890 1.881569 6.256495
v -7.806890 2.460590 6.256495
v -7.119528 2.474685 6.256495
vt 0.619909 0.008373
vt 0.715122 0.008373
vt 0.715122 0.103586
vt 0.619909 0.103586
vt 0.619909 0.008373
vt 0.715122 0.008373
vt 0.715122 0.103586
vt 0.619909 0.103586
vn 0.0000 0.0000 -1.0000
usemtl M.028
s 1
f 65/65/9 66/66/9 67/67/9 68/68/9
f 69/69/9 70/70/9 71/71/9 72/72/9
o SM_Prop_Window_01.002_Mesh.027
v -7.806890 5.100726 6.256495
v -7.806890 5.870045 6.256495
v -7.119528 5.870045 6.256495
v -7.119528 5.100726 6.256495
v -7.119528 4.381569 6.256495
v -7.806890 4.381569 6.256495
v -7.806890 4.960590 6.256495
v -7.119528 4.974685 6.256495
vt 0.619909 0.008373
vt 0.715122 0.008373
vt 0.715122 0.103586
vt 0.619909 0.103586
vt 0.619909 0.008373
vt 0.715122 0.008373
vt 0.715122 0.103586
vt 0.619909 0.103586
vn 0.0000 0.0000 -1.0000
usemtl M.027
s 1
f 73/73/10 74/74/10 75/75/10 76/76/10
f 77/77/10 78/78/10 79/79/10 80/80/10
o SM_Prop_Window_01.002_Mesh.026
v -9.806890 5.100726 6.256495
v -9.806890 5.870045 6.256495
v -9.119528 5.870045 6.256495
v -9.119528 5.100726 6.256495
v -9.119528 4.381569 6.256495
v -9.806890 4.381569 6.256495
v -9.806890 4.960590 6.256495
v -9.119528 4.974685 6.256495
vt 0.619909 0.008373
vt 0.715122 0.008373
vt 0.715122 0.103586
vt 0.619909 0.103586
vt 0.619909 0.008373
vt 0.715122 0.008373
vt 0.715122 0.103586
vt 0.619909 0.103586
vn 0.0000 0.0000 -1.0000
usemtl M.026
s 1
f 81/81/11 82/82/11 83/83/11 84/84/11
f 85/85/11 86/86/11 87/87/11 88/88/11
o SM_Prop_Window_01.002_Mesh.022
v -7.193109 5.100726 -6.256494
v -7.193109 5.870045 -6.256494
v -7.880471 5.870045 -6.256494
v -7.880471 5.100726 -6.256494
v -7.880471 4.381569 -6.256495
v -7.193109 4.381569 -6.256495
v -7.193109 4.960590 -6.256494
v -7.880471 4.974685 -6.256494
vt 0.619909 0.008373
vt 0.715122 0.008373
vt 0.715122 0.103586
vt 0.619909 0.103586
vt 0.619909 0.008373
vt 0.715122 0.008373
vt 0.715122 0.103586
vt 0.619909 0.103586
vn 0.0000 0.0000 1.0000
usemtl M.022
s 1
f 89/89/12 90/90/12 91/91/12 92/92/12
f 93/93/12 94/94/12 95/95/12 96/96/12
o SM_Prop_Window_01.002_Mesh.017_SM_Prop_Window_01.002_Mesh.036
v 7.193110 5.100726 6.256495
v 7.193110 5.870045 6.256495
v 7.880472 5.870045 6.256495
v 7.880472 5.100726 6.256495
v 7.880472 4.381569 6.256495
v 7.193110 4.381569 6.256495
v 7.193110 4.960590 6.256495
v 7.880472 4.974685 6.256495
vt 0.619909 0.008373
vt 0.715122 0.008373
vt 0.715122 0.103586
vt 0.619909 0.103586
vt 0.619909 0.008373
vt 0.715122 0.008373
vt 0.715122 0.103586
vt 0.619909 0.103586
vn 0.0000 0.0000 -1.0000
usemtl M.036
s 1
f 97/97/13 98/98/13 99/99/13 100/100/13
f 101/101/13 102/102/13 103/103/13 104/104/13
o SM_Prop_Window_01.002_Mesh.013_SM_Prop_Window_01.002_Mesh.035
v 9.193110 5.100726 6.256495
v 9.193110 5.870045 6.256495
v 9.880472 5.870045 6.256495
v 9.880472 5.100726 6.256495
v 9.880472 4.381569 6.256495
v 9.193110 4.381569 6.256495
v 9.193110 4.960590 6.256495
v 9.880472 4.974685 6.256495
vt 0.619909 0.008373
vt 0.715122 0.008373
vt 0.715122 0.103586
vt 0.619909 0.103586
vt 0.619909 0.008373
vt 0.715122 0.008373
vt 0.715122 0.103586
vt 0.619909 0.103586
vn 0.0000 0.0000 -1.0000
usemtl M.035
s 1
f 105/105/14 106/106/14 107/107/14 108/108/14
f 109/109/14 110/110/14 111/111/14 112/112/14
o SM_Prop_Window_01.002_Mesh.011_SM_Prop_Window_01.002_Mesh.034
v 9.193110 2.600726 6.256495
v 9.193110 3.370045 6.256495
v 9.880472 3.370045 6.256495
v 9.880472 2.600726 6.256495
v 9.880472 1.881569 6.256495
v 9.193110 1.881569 6.256495
v 9.193110 2.460590 6.256495
v 9.880472 2.474685 6.256495
vt 0.619909 0.008373
vt 0.715122 0.008373
vt 0.715122 0.103586
vt 0.619909 0.103586
vt 0.619909 0.008373
vt 0.715122 0.008373
vt 0.715122 0.103586
vt 0.619909 0.103586
vn 0.0000 0.0000 -1.0000
usemtl M.034
s 1
f 113/113/15 114/114/15 115/115/15 116/116/15
f 117/117/15 118/118/15 119/119/15 120/120/15
o SM_Prop_Window_01.002_Mesh.008_SM_Prop_Window_01.002_Mesh.033
v 7.193110 2.600726 6.256495
v 7.193110 3.370045 6.256495
v 7.880472 3.370045 6.256495
v 7.880472 2.600726 6.256495
v 7.880472 1.881569 6.256495
v 7.193110 1.881569 6.256495
v 7.193110 2.460590 6.256495
v 7.880472 2.474685 6.256495
vt 0.619909 0.008373
vt 0.715122 0.008373
vt 0.715122 0.103586
vt 0.619909 0.103586
vt 0.619909 0.008373
vt 0.715122 0.008373
vt 0.715122 0.103586
vt 0.619909 0.103586
vn 0.0000 0.0000 -1.0000
usemtl M.033
s 1
f 121/121/16 122/122/16 123/123/16 124/124/16
f 125/125/16 126/126/16 127/127/16 128/128/16
o SM_Prop_Window_01.002_Mesh.036_SM_Prop_Window_01.002_Mesh.044
v -13.756495 5.100726 -3.306891
v -13.756495 5.870045 -3.306891
v -13.756495 5.870045 -2.619529
v -13.756495 5.100726 -2.619529
v -13.756495 4.381569 -2.619529
v -13.756495 4.381569 -3.306891
v -13.756495 4.960590 -3.306891
v -13.756495 4.974685 -2.619529
vt 0.619909 0.008373
vt 0.715122 0.008373
vt 0.715122 0.103586
vt 0.619909 0.103586
vt 0.619909 0.008373
vt 0.715122 0.008373
vt 0.715122 0.103586
vt 0.619909 0.103586
vn 1.0000 0.0000 0.0000
usemtl M.044
s 1
f 129/129/17 130/130/17 131/131/17 132/132/17
f 133/133/17 134/134/17 135/135/17 136/136/17
o SM_Prop_Window_01.002_Mesh.035_SM_Prop_Window_01.002_Mesh.043
v -13.756495 5.100726 -1.306891
v -13.756495 5.870045 -1.306891
v -13.756495 5.870045 -0.619529
v -13.756495 5.100726 -0.619529
v -13.756495 4.381568 -0.619529
v -13.756495 4.381568 -1.306891
v -13.756495 4.960589 -1.306891
v -13.756495 4.974684 -0.619529
vt 0.619909 0.008373
vt 0.715122 0.008373
vt 0.715122 0.103586
vt 0.619909 0.103586
vt 0.619909 0.008373
vt 0.715122 0.008373
vt 0.715122 0.103586
vt 0.619909 0.103586
vn 1.0000 0.0000 0.0000
usemtl M.043
s 1
f 137/137/18 138/138/18 139/139/18 140/140/18
f 141/141/18 142/142/18 143/143/18 144/144/18
o SM_Prop_Window_01.002_Mesh.034_SM_Prop_Window_01.002_Mesh.042
v -13.756495 2.600726 -1.306891
v -13.756495 3.370045 -1.306891
v -13.756495 3.370045 -0.619529
v -13.756495 2.600726 -0.619529
v -13.756495 1.881569 -0.619529
v -13.756495 1.881569 -1.306891
v -13.756495 2.460590 -1.306891
v -13.756495 2.474685 -0.619529
vt 0.619909 0.008373
vt 0.715122 0.008373
vt 0.715122 0.103586
vt 0.619909 0.103586
vt 0.619909 0.008373
vt 0.715122 0.008373
vt 0.715122 0.103586
vt 0.619909 0.103586
vn 1.0000 0.0000 0.0000
usemtl M.042
s 1
f 145/145/19 146/146/19 147/147/19 148/148/19
f 149/149/19 150/150/19 151/151/19 152/152/19
o SM_Prop_Window_01.002_Mesh.033_SM_Prop_Window_01.002_Mesh.041
v -13.756495 2.600726 -3.306891
v -13.756495 3.370045 -3.306891
v -13.756495 3.370045 -2.619529
v -13.756495 2.600726 -2.619529
v -13.756495 1.881569 -2.619529
v -13.756495 1.881569 -3.306891
v -13.756495 2.460590 -3.306891
v -13.756495 2.474685 -2.619529
vt 0.619909 0.008373
vt 0.715122 0.008373
vt 0.715122 0.103586
vt 0.619909 0.103586
vt 0.619909 0.008373
vt 0.715122 0.008373
vt 0.715122 0.103586
vt 0.619909 0.103586
vn 1.0000 0.0000 0.0000
usemtl M.041
s 1
f 153/153/20 154/154/20 155/155/20 156/156/20
f 157/157/20 158/158/20 159/159/20 160/160/20
o SM_Prop_Window_01.002_Mesh.048_SM_Prop_Window_01.002_Mesh.056
v -13.756495 2.600726 0.693109
v -13.756495 3.370045 0.693109
v -13.756495 3.370045 1.380471
v -13.756495 2.600726 1.380471
v -13.756495 1.881569 1.380471
v -13.756495 1.881569 0.693109
v -13.756495 2.460590 0.693109
v -13.756495 2.474685 1.380471
vt 0.619909 0.008373
vt 0.715122 0.008373
vt 0.715122 0.103586
vt 0.619909 0.103586
vt 0.619909 0.008373
vt 0.715122 0.008373
vt 0.715122 0.103586
vt 0.619909 0.103586
vn 1.0000 0.0000 0.0000
usemtl M.056
s 1
f 161/161/21 162/162/21 163/163/21 164/164/21
f 165/165/21 166/166/21 167/167/21 168/168/21
o SM_Prop_Window_01.002_Mesh.047_SM_Prop_Window_01.002_Mesh.055
v -13.756495 2.600726 2.693109
v -13.756495 3.370045 2.693109
v -13.756495 3.370045 3.380471
v -13.756495 2.600726 3.380471
v -13.756495 1.881569 3.380471
v -13.756495 1.881569 2.693109
v -13.756495 2.460590 2.693109
v -13.756495 2.474685 3.380471
vt 0.619909 0.008373
vt 0.715122 0.008373
vt 0.715122 0.103586
vt 0.619909 0.103586
vt 0.619909 0.008373
vt 0.715122 0.008373
vt 0.715122 0.103586
vt 0.619909 0.103586
vn 1.0000 0.0000 0.0000
usemtl M.055
s 1
f 169/169/22 170/170/22 171/171/22 172/172/22
f 173/173/22 174/174/22 175/175/22 176/176/22
o SM_Prop_Window_01.002_Mesh.046_SM_Prop_Window_01.002_Mesh.054
v -13.756495 5.100726 2.693109
v -13.756495 5.870045 2.693109
v -13.756495 5.870045 3.380471
v -13.756495 5.100726 3.380471
v -13.756495 4.381568 3.380471
v -13.756495 4.381568 2.693109
v -13.756495 4.960589 2.693109
v -13.756495 4.974684 3.380471
vt 0.619909 0.008373
vt 0.715122 0.008373
vt 0.715122 0.103586
vt 0.619909 0.103586
vt 0.619909 0.008373
vt 0.715122 0.008373
vt 0.715122 0.103586
vt 0.619909 0.103586
vn 1.0000 0.0000 0.0000
usemtl M.054
s 1
f 177/177/23 178/178/23 179/179/23 180/180/23
f 181/181/23 182/182/23 183/183/23 184/184/23
o SM_Prop_Window_01.002_Mesh.045_SM_Prop_Window_01.002_Mesh.053
v -13.756495 5.100726 0.693109
v -13.756495 5.870045 0.693109
v -13.756495 5.870045 1.380471
v -13.756495 5.100726 1.380471
v -13.756495 4.381569 1.380471
v -13.756495 4.381569 0.693109
v -13.756495 4.960590 0.693109
v -13.756495 4.974685 1.380471
vt 0.619909 0.008373
vt 0.715122 0.008373
vt 0.715122 0.103586
vt 0.619909 0.103586
vt 0.619909 0.008373
vt 0.715122 0.008373
vt 0.715122 0.103586
vt 0.619909 0.103586
vn 1.0000 0.0000 0.0000
usemtl M.053
s 1
f 185/185/24 186/186/24 187/187/24 188/188/24
f 189/189/24 190/190/24 191/191/24 192/192/24
