# Blender v2.93.5 OBJ File: ''
# www.blender.org
mtllib road.mtl
o SM_Env_Road_01_Mesh.002
v -2.500000 0.000000 2.500000
v 2.500000 0.000000 2.500000
v -2.500000 0.000001 -2.500000
v 2.500000 0.000001 -2.500000
v 2.342560 0.000001 -0.625000
v -2.500000 0.000000 0.000000
v 2.342560 0.000000 0.625000
v 2.500000 0.000000 0.625000
v 2.500000 0.000001 -0.625000
v 2.391479 0.000001 -0.625000
v 2.500000 0.000000 1.875000
v 2.342560 0.000000 1.875000
v 2.342560 0.000001 -0.716980
v 2.342560 0.000001 -1.875000
v 2.500000 0.000001 -1.875000
v 2.342560 0.000000 1.111374
v 2.383606 0.000000 0.971046
v 2.342560 0.000000 0.902840
vt 0.951795 0.625465
vt 0.951795 0.384693
vt 0.961256 0.625465
vt 0.982243 0.384693
vt 0.982243 0.625465
vt 0.982243 0.143920
vt 0.951795 0.143920
vt 0.015275 0.023534
vt 0.982243 0.023534
vt 0.951795 0.643183
vt 0.015275 0.986624
vt 0.951795 0.866238
vt 0.982243 0.866238
vt 0.982243 0.986624
vt 0.015275 0.505079
vt 0.951795 0.291008
vt 0.959733 0.318038
vt 0.951795 0.331176
vt 0.009445 0.005709
vt 0.009445 0.005709
vt 0.009445 0.005709
vt 0.009445 0.005709
vt 0.009445 0.005709
vt 0.009445 0.005709
vt 0.009445 0.005709
vt 0.009445 0.005709
vt 0.009445 0.005709
vt 0.009445 0.005709
vt 0.009445 0.005709
vt 0.009445 0.005709
vn -0.0000 1.0000 0.0000
usemtl blinn269.003
s 1
f 5/1/1 7/2/1 10/3/1
f 7/2/1 8/4/1 10/3/1
f 8/4/1 9/5/1 10/3/1
f 11/6/1 12/7/1 1/8/1 2/9/1
f 5/1/1 10/3/1 13/10/1
f 3/11/1 14/12/1 15/13/1 4/14/1
f 3/11/1 6/15/1 14/12/1
f 5/1/1 13/10/1 6/15/1
f 13/10/1 14/12/1 6/15/1
f 16/16/1 17/17/1 18/18/1
f 6/15/1 1/8/1 7/2/1
f 7/2/1 1/8/1 18/18/1
f 18/18/1 1/8/1 16/16/1
f 1/8/1 12/7/1 16/16/1
f 5/1/1 6/15/1 7/2/1
f 17/19/1 11/20/1 8/21/1
f 17/19/1 8/21/1 7/22/1 18/23/1
f 12/24/1 11/20/1 17/19/1 16/25/1
f 13/26/1 15/27/1 14/28/1
f 13/26/1 10/29/1 9/30/1 15/27/1
