# Blender v2.93.5 OBJ File: ''
# www.blender.org
mtllib sidewalk_straight.mtl
o SM_Env_Sidewalk_Straight_01_Mesh.018
v 2.500008 -0.000000 2.500000
v 2.500008 0.000001 -2.500000
v -2.500002 -0.000000 2.500000
v -2.500002 0.000001 -2.499996
v 2.500008 0.069697 1.826218
v -2.500002 0.069697 1.826218
v 2.500008 0.069697 1.476936
v -2.500002 0.069697 1.476934
v 2.500008 -0.230295 1.912552
v -2.500002 -0.230295 1.912552
v 2.500008 0.000000 1.426216
v -2.500002 0.000000 1.426214
v 2.500008 -0.054173 2.419651
v -2.500002 -0.054173 2.419651
v -2.500002 -0.083538 2.234573
v 2.500008 -0.083538 2.234573
v 2.500008 0.000001 -0.673286
v -2.500002 0.000001 -0.673290
v 0.392523 -0.000000 2.500000
v 0.411963 -0.077306 2.354252
v 0.378947 -0.083538 2.281120
v -0.061739 -0.230295 1.871986
v -0.061739 0.069697 1.785652
v -0.061739 0.069697 1.436371
v -0.004823 0.000000 1.363083
v 0.103487 0.051429 -0.562252
v 0.087298 0.005825 -0.651981
v 0.033476 0.000001 -2.500000
v -0.091825 0.000000 1.385647
v 0.016020 0.017936 -0.591965
v 0.016020 0.000001 -0.645386
v -0.060152 0.000001 -2.500000
v 2.473599 0.000001 -2.499996
v 2.443871 0.000001 -0.717865
v 2.473603 0.000001 -0.646576
v 2.448945 0.000000 1.416222
v 2.433144 0.069697 1.476936
v 2.431538 0.069697 1.826218
v 2.448018 -0.230295 1.912552
v 2.455292 -0.083538 2.234573
v 2.455288 -0.054173 2.419651
v -2.466410 0.000001 -2.499996
v -2.466410 0.000001 -0.700001
v -2.466412 0.000001 -0.646578
v -2.408827 0.000000 1.391150
v -2.466410 0.069697 1.476934
v -2.466410 0.069697 1.826218
v -2.466410 -0.230295 1.912552
v -2.466412 -0.083538 2.234571
v -2.466410 -0.054173 2.419651
vt 0.066177 0.209415
vt 0.066177 0.209415
vt 0.066177 0.209415
vt 0.066177 0.209415
vt 0.102183 0.307564
vt 0.102183 0.307564
vt 0.102183 0.307564
vt 0.102183 0.307564
vt 0.102183 0.307564
vt 0.102183 0.307564
vt 0.102183 0.307564
vt 0.102183 0.307564
vt 0.102705 0.299407
vt 0.102705 0.299407
vt 0.102705 0.299407
vt 0.102705 0.299407
vt 0.102183 0.307564
vt 0.102183 0.307564
vt 0.102183 0.307564
vt 0.102183 0.307564
vt 0.102318 0.327655
vt 0.102318 0.327655
vt 0.102318 0.327655
vt 0.102318 0.327655
vt 0.102318 0.327655
vt 0.102318 0.327655
vt 0.102318 0.327655
vt 0.102318 0.327655
vt 0.066177 0.209415
vt 0.066177 0.209415
vt 0.066177 0.209415
vt 0.102497 0.279316
vt 0.102497 0.279316
vt 0.102497 0.279316
vt 0.102497 0.279316
vt 0.102497 0.279316
vt 0.102497 0.279316
vt 0.102497 0.279316
vt 0.102497 0.279316
vt 0.102497 0.279316
vt 0.102497 0.279316
vt 0.102497 0.279316
vt 0.102497 0.279316
vt 0.102705 0.299407
vt 0.102705 0.299407
vt 0.102705 0.299407
vt 0.102705 0.299407
vt 0.102705 0.299407
vt 0.102705 0.299407
vt 0.102705 0.299407
vt 0.102497 0.301795
vt 0.102497 0.301795
vt 0.102497 0.301795
vt 0.102705 0.299407
vt 0.102705 0.299407
vt 0.102705 0.299407
vt 0.102705 0.299407
vt 0.102705 0.299407
vt 0.102705 0.299407
vt 0.102318 0.327655
vt 0.102318 0.327655
vt 0.102318 0.327655
vt 0.102318 0.327655
vt 0.102318 0.327655
vt 0.102318 0.327655
vt 0.102318 0.327655
vt 0.102318 0.327655
vt 0.102183 0.307564
vt 0.102183 0.307564
vt 0.102183 0.307564
vt 0.102183 0.307564
vt 0.102183 0.307564
vt 0.102183 0.307564
vt 0.102183 0.307564
vt 0.102705 0.299407
vt 0.102705 0.299407
vt 0.102705 0.299407
vt 0.102705 0.299407
vt 0.102705 0.299407
vt 0.102497 0.279316
vt 0.102497 0.279316
vt 0.102497 0.279316
vt 0.102497 0.279316
vt 0.102497 0.279316
vt 0.102497 0.279316
vt 0.102497 0.279316
vt 0.102497 0.279316
vt 0.102497 0.279316
vt 0.102497 0.279316
vt 0.102497 0.279316
vt 0.102497 0.279316
vt 0.066177 0.209415
vn 0.0029 0.8643 -0.5030
vn -0.0020 0.8642 -0.5031
vn -0.0022 0.8642 -0.5031
vn -0.0000 1.0000 0.0000
vn -0.0070 0.6990 -0.7151
vn 0.0162 0.2765 0.9609
vn 0.0001 0.9862 -0.1656
vn 0.0004 0.9279 -0.3728
vn 0.0002 0.9280 -0.3726
vn -0.0002 0.9281 -0.3724
vn 0.0036 0.9906 -0.1370
vn 0.0025 0.9906 -0.1369
vn -0.0039 0.9907 -0.1361
vn -0.0012 1.0000 0.0014
vn -0.0036 1.0000 0.0042
vn -0.0038 1.0000 0.0044
vn 0.0000 0.8291 -0.5590
vn 0.0000 0.9876 -0.1567
vn 0.0000 0.9100 -0.4147
vn 0.0000 0.2766 0.9610
vn 0.0657 0.6276 -0.7757
vn 0.0004 1.0000 -0.0006
vn 0.0006 1.0000 -0.0008
vn -0.1948 0.6308 -0.7511
vn -0.1888 0.9820 0.0070
vn -0.1132 0.8938 -0.4339
vn -0.0353 0.9994 -0.0003
vn 0.0012 1.0000 -0.0016
vn 0.0030 0.9619 -0.2733
vn 0.0107 0.9999 0.0133
vn 0.0136 0.6966 -0.7173
vn -0.0156 0.2761 0.9610
vn -0.0005 0.9281 -0.3723
vn -0.0049 0.9907 -0.1360
vn 0.0031 0.8643 -0.5030
vn -0.2081 0.6391 -0.7404
vn -0.2470 0.9186 -0.3084
usemtl lambert1.019
s 1
f 19/1/1 20/2/2 50/3/3 3/4/3
f 46/5/4 47/6/4 23/7/4 24/8/4
f 45/9/5 46/5/5 24/8/5 29/10/5
f 47/6/6 48/11/6 22/12/6 23/7/6
f 43/13/7 44/14/7 30/15/7 31/16/7
f 48/11/8 49/17/8 21/18/9 22/12/10
f 49/17/11 50/19/11 20/20/12 21/18/13
f 42/21/4 43/22/4 31/23/4 32/24/4
f 44/25/14 45/26/15 29/27/16 30/28/16
f 1/29/17 13/30/17 41/31/17
f 40/32/18 41/33/18 13/34/18 16/35/18
f 39/36/19 40/32/19 16/35/19 9/37/19
f 38/38/20 39/36/20 9/37/20 5/39/20
f 37/40/4 38/38/4 5/39/4 7/41/4
f 36/42/21 37/40/21 7/41/21 11/43/21
f 35/44/4 36/45/4 11/46/4 17/47/4
f 34/48/22 35/44/4 17/47/4
f 33/49/23 34/48/22 17/47/4 2/50/4
f 29/51/24 24/52/24 25/53/24
f 30/15/25 29/54/25 25/55/25 26/56/25
f 31/16/26 26/56/26 27/57/26
f 32/58/27 31/16/27 27/57/27 28/59/27
f 28/60/28 27/61/28 34/62/22 33/63/23
f 27/57/29 26/56/29 35/44/29 34/48/29
f 26/64/30 25/65/30 36/66/30 35/67/30
f 25/68/31 24/8/31 37/69/31 36/70/31
f 24/8/4 23/7/4 38/71/4 37/69/4
f 23/7/32 22/12/32 39/72/32 38/71/32
f 22/12/10 21/18/9 40/73/33 39/72/33
f 21/18/13 20/20/12 41/74/34 40/73/34
f 1/29/35 41/31/35 20/2/2 19/1/1
f 18/75/4 43/13/4 42/76/4 4/77/4
f 18/75/4 44/14/14 43/13/4
f 12/78/4 45/79/15 44/14/14 18/75/4
f 8/80/36 46/81/36 45/82/36 12/83/36
f 6/84/4 47/85/4 46/81/4 8/80/4
f 10/86/20 48/87/20 47/85/20 6/84/20
f 15/88/19 49/89/19 48/87/19 10/86/19
f 14/90/18 50/91/18 49/89/18 15/88/18
f 3/4/17 50/3/17 14/92/17
f 31/16/37 30/15/37 26/56/37
