# Blender v2.93.5 OBJ File: ''
# www.blender.org
mtllib apartment_roof_2.mtl
o SM_Bld_Apartment_Roof_02_Mesh.014
v -0.719925 0.136928 0.235679
v -0.530075 0.136928 0.235679
v -0.719925 0.269960 0.292038
v -0.530075 0.269960 0.292038
v -0.719925 0.269960 0.020749
v -0.530075 0.269960 0.020749
v -0.719925 0.027393 0.020749
v -0.530075 0.027393 0.020749
v -1.219925 0.136928 0.235679
v -1.030075 0.136928 0.235679
v -1.219925 0.269960 0.292038
v -1.030075 0.269960 0.292038
v -1.219925 0.269960 0.020749
v -1.030075 0.269960 0.020749
v -1.219925 0.027393 0.020749
v -1.030075 0.027393 0.020749
v -1.719925 0.136928 0.235679
v -1.530075 0.136928 0.235679
v -1.719925 0.269960 0.292038
v -1.530075 0.269960 0.292038
v -1.719925 0.269960 0.020749
v -1.530075 0.269960 0.020749
v -1.719925 0.027393 0.020749
v -1.530075 0.027393 0.020749
v -2.219925 0.136928 0.235679
v -2.030075 0.136928 0.235679
v -2.219925 0.269960 0.292038
v -2.030075 0.269960 0.292038
v -2.219925 0.269960 0.020749
v -2.030075 0.269960 0.020749
v -2.219925 0.027393 0.020749
v -2.030075 0.027393 0.020749
v 1.780075 0.136928 0.235679
v 1.969925 0.136928 0.235679
v 1.780075 0.269960 0.292038
v 1.969925 0.269960 0.292038
v 1.780075 0.269960 0.020749
v 1.969925 0.269960 0.020749
v 1.780075 0.027393 0.020749
v 1.969925 0.027393 0.020749
v 1.280075 0.136928 0.235679
v 1.469925 0.136928 0.235679
v 1.280075 0.269960 0.292038
v 1.469925 0.269960 0.292038
v 1.280075 0.269960 0.020749
v 1.469925 0.269960 0.020749
v 1.280075 0.027393 0.020749
v 1.469925 0.027393 0.020749
v 0.780075 0.136928 0.235679
v 0.969925 0.136928 0.235679
v 0.780075 0.269960 0.292038
v 0.969925 0.269960 0.292038
v 0.780075 0.269960 0.020749
v 0.969925 0.269960 0.020749
v 0.780075 0.027393 0.020749
v 0.969925 0.027393 0.020749
v 0.280075 0.136928 0.235679
v 0.469925 0.136928 0.235679
v 0.280075 0.269960 0.292038
v 0.469925 0.269960 0.292038
v 0.280075 0.269960 0.020749
v 0.469925 0.269960 0.020749
v 0.280075 0.027393 0.020749
v 0.469925 0.027393 0.020749
v -0.219925 0.136928 0.235679
v -0.030075 0.136928 0.235679
v -0.219925 0.269960 0.292038
v -0.030075 0.269960 0.292038
v -0.219925 0.269960 0.020749
v -0.030075 0.269960 0.020749
v -0.219925 0.027393 0.020749
v -0.030075 0.027393 0.020749
v -2.636444 -0.000000 0.050776
v 2.386444 -0.000000 0.050776
v -2.751102 0.499867 0.336030
v 2.501102 0.499867 0.336030
v -2.751102 0.499868 -5.152069
v 2.501102 0.499868 -5.152069
v -2.636444 0.000001 -5.056689
v 2.386444 0.000001 -5.056689
v -2.636444 0.094921 -5.056689
v -2.636444 0.094920 0.050776
v 2.386444 0.094920 0.050776
v 2.386444 0.094921 -5.056689
v 2.441565 0.132862 0.155952
v -2.691565 0.132862 0.155952
v -2.691565 0.132863 -5.097591
v 2.441565 0.132863 -5.097591
v 2.441565 0.229365 0.155952
v -2.691565 0.229365 0.155952
v -2.691565 0.229365 -5.097591
v 2.441565 0.229365 -5.097591
v 2.501102 0.269960 0.336030
v -2.751102 0.269960 0.336030
v -2.751102 0.269961 -5.152069
v 2.501102 0.269961 -5.152069
v -2.625000 0.499867 0.213519
v 2.375000 0.499867 0.213519
v 2.375000 0.499867 -0.052369
v -2.625000 0.499867 -0.052369
v -2.651413 0.743541 0.242643
v 2.401415 0.743541 0.242643
v 2.401415 0.743541 -0.081493
v -2.651413 0.743541 -0.081493
v -2.651413 0.692281 -0.081493
v -2.651413 0.692281 0.242643
v 2.401415 0.692281 0.242643
v 2.401415 0.692281 -0.081493
v -2.625000 0.558852 -0.052369
v -2.625000 0.558852 0.213519
v 2.375000 0.558852 0.213519
v 2.375000 0.558852 -0.052369
v -2.595839 0.574672 -0.022730
v -2.595839 0.574672 0.183881
v -2.595839 0.676460 0.183881
v -2.595839 0.676460 -0.022731
v 2.345839 0.574672 0.183881
v 2.345839 0.676460 0.183881
v 2.345839 0.574672 -0.022730
v 2.345839 0.676460 -0.022731
vt 0.037983 0.325693
vt 0.037983 0.325693
vt 0.037983 0.325693
vt 0.037983 0.325693
vt 0.037983 0.325693
vt 0.037983 0.325693
vt 0.037983 0.325693
vt 0.037983 0.325693
vt 0.037983 0.325693
vt 0.037983 0.325693
vt 0.037983 0.325693
vt 0.037983 0.325693
vt 0.037983 0.325693
vt 0.037983 0.325693
vt 0.037983 0.325693
vt 0.037983 0.325693
vt 0.037983 0.325693
vt 0.037983 0.325693
vt 0.037983 0.325693
vt 0.037983 0.325693
vt 0.037983 0.325693
vt 0.037983 0.325693
vt 0.037983 0.325693
vt 0.037983 0.325693
vt 0.037983 0.325693
vt 0.037983 0.325693
vt 0.037983 0.325693
vt 0.037983 0.325693
vt 0.037983 0.325693
vt 0.037983 0.325693
vt 0.037983 0.325693
vt 0.037983 0.325693
vt 0.037983 0.325693
vt 0.037983 0.325693
vt 0.037983 0.325693
vt 0.037983 0.325693
vt 0.037983 0.325693
vt 0.037983 0.325693
vt 0.037983 0.325693
vt 0.037983 0.325693
vt 0.037983 0.325693
vt 0.037983 0.325693
vt 0.037983 0.325693
vt 0.037983 0.325693
vt 0.037983 0.325693
vt 0.037983 0.325693
vt 0.037983 0.325693
vt 0.037983 0.325693
vt 0.037983 0.325693
vt 0.037983 0.325693
vt 0.037983 0.325693
vt 0.037983 0.325693
vt 0.037983 0.325693
vt 0.037983 0.325693
vt 0.037983 0.325693
vt 0.037983 0.325693
vt 0.037983 0.325693
vt 0.037983 0.325693
vt 0.037983 0.325693
vt 0.037983 0.325693
vt 0.037983 0.325693
vt 0.037983 0.325693
vt 0.037983 0.325693
vt 0.037983 0.325693
vt 0.037983 0.325693
vt 0.037983 0.325693
vt 0.037983 0.325693
vt 0.037983 0.325693
vt 0.037983 0.325693
vt 0.037983 0.325693
vt 0.037983 0.325693
vt 0.037983 0.325693
vt 0.037983 0.325693
vt 0.037983 0.325693
vt 0.037983 0.325693
vt 0.037983 0.325693
vt 0.037185 0.302378
vt 0.037185 0.302378
vt 0.037185 0.302378
vt 0.037185 0.302378
vt 0.037983 0.325693
vt 0.037983 0.325693
vt 0.037983 0.325693
vt 0.037983 0.325693
vt 0.198054 0.252221
vt 0.198054 0.252221
vt 0.198054 0.252221
vt 0.198054 0.252221
vt 0.198054 0.252221
vt 0.198054 0.252221
vt 0.198054 0.252221
vt 0.198054 0.252221
vt 0.037983 0.325693
vt 0.037983 0.325693
vt 0.037983 0.325693
vt 0.037983 0.325693
vt 0.100260 0.263232
vt 0.100260 0.263232
vt 0.100260 0.263232
vt 0.100260 0.263232
vt 0.100260 0.263232
vt 0.100260 0.263232
vt 0.100260 0.263232
vt 0.100260 0.263232
vt 0.100260 0.263232
vt 0.100260 0.263232
vt 0.100260 0.263232
vt 0.100260 0.263232
vt 0.100260 0.263232
vt 0.100260 0.263232
vt 0.100260 0.263232
vt 0.100260 0.263232
vt 0.037185 0.302378
vt 0.037185 0.302378
vt 0.037185 0.302378
vt 0.037185 0.302378
vt 0.037185 0.302378
vt 0.037185 0.302378
vt 0.037185 0.302378
vt 0.037185 0.302378
vt 0.037185 0.302378
vt 0.037185 0.302378
vt 0.037185 0.302378
vt 0.037185 0.302378
vt 0.037185 0.302378
vt 0.037185 0.302378
vt 0.037185 0.302378
vt 0.037185 0.302378
vt 0.037185 0.302378
vt 0.037185 0.302378
vt 0.037185 0.302378
vt 0.037185 0.302378
vn 0.0000 -0.3901 0.9208
vn 0.0000 -0.8910 0.4541
vn 1.0000 0.0000 0.0000
vn -1.0000 -0.0000 0.0000
vn 0.0000 -0.9407 0.3393
vn 0.0000 1.0000 0.0000
vn 0.0000 -0.7331 -0.6801
vn 0.0000 -1.0000 -0.0000
vn 0.5670 -0.8237 -0.0000
vn -0.5670 -0.8237 -0.0000
vn 0.0000 -0.0000 1.0000
vn 0.0000 0.0000 -1.0000
vn 0.0000 -0.9755 0.2199
vn -0.5633 -0.8262 -0.0000
vn 0.0000 -0.8019 -0.5975
vn 0.5633 -0.8262 -0.0000
vn -0.4769 0.8790 0.0000
vn -0.2738 -0.9618 -0.0000
vn 0.0000 0.8822 0.4709
vn 0.0000 -0.9656 0.2600
vn 0.4769 0.8790 0.0000
vn 0.2738 -0.9618 -0.0000
vn 0.0000 0.8822 -0.4709
vn 0.0000 -0.9656 -0.2600
usemtl lambert3
s 1
f 1/1/1 2/2/1 4/3/1 3/4/1
f 7/5/2 8/6/2 2/2/2 1/1/2
f 2/2/3 8/6/3 6/7/3 4/3/3
f 7/5/4 1/1/4 3/4/4 5/8/4
f 9/9/1 10/10/1 12/11/1 11/12/1
f 15/13/2 16/14/2 10/10/2 9/9/2
f 10/10/3 16/14/3 14/15/3 12/11/3
f 15/13/4 9/9/4 11/12/4 13/16/4
f 17/17/1 18/18/1 20/19/1 19/20/1
f 23/21/2 24/22/2 18/18/2 17/17/2
f 18/18/3 24/22/3 22/23/3 20/19/3
f 23/21/4 17/17/4 19/20/4 21/24/4
f 25/25/1 26/26/1 28/27/1 27/28/1
f 31/29/2 32/30/2 26/26/2 25/25/2
f 26/26/3 32/30/3 30/31/3 28/27/3
f 31/29/4 25/25/4 27/28/4 29/32/4
f 33/33/1 34/34/1 36/35/1 35/36/1
f 39/37/2 40/38/2 34/34/2 33/33/2
f 34/34/3 40/38/3 38/39/3 36/35/3
f 39/37/4 33/33/4 35/36/4 37/40/4
f 41/41/1 42/42/1 44/43/1 43/44/1
f 47/45/2 48/46/2 42/42/2 41/41/2
f 42/42/3 48/46/3 46/47/3 44/43/3
f 47/45/4 41/41/4 43/44/4 45/48/4
f 49/49/1 50/50/1 52/51/1 51/52/1
f 55/53/2 56/54/2 50/50/2 49/49/2
f 50/50/3 56/54/3 54/55/3 52/51/3
f 55/53/4 49/49/4 51/52/4 53/56/4
f 57/57/1 58/58/1 60/59/1 59/60/1
f 63/61/2 64/62/2 58/58/2 57/57/2
f 58/58/3 64/62/3 62/63/3 60/59/3
f 63/61/4 57/57/4 59/60/4 61/64/4
f 65/65/1 66/66/1 68/67/1 67/68/1
f 71/69/2 72/70/2 66/66/2 65/65/2
f 66/66/3 72/70/3 70/71/3 68/67/3
f 71/69/4 65/65/4 67/68/4 69/72/4
f 82/73/5 83/74/5 85/75/5 86/76/5
f 101/77/6 102/78/6 103/79/6 104/80/6
f 87/81/7 88/82/7 84/83/7 81/84/7
f 79/85/8 80/86/8 74/87/8 73/88/8
f 83/74/9 84/83/9 88/82/9 85/75/9
f 81/84/10 82/73/10 86/76/10 87/81/10
f 79/85/4 73/88/4 82/89/4 81/90/4
f 73/88/11 74/87/11 83/91/11 82/89/11
f 74/87/3 80/86/3 84/92/3 83/91/3
f 81/90/12 84/92/12 80/86/12 79/85/12
f 86/76/11 85/75/11 89/93/11 90/94/11
f 87/81/4 86/76/4 90/94/4 91/95/4
f 91/95/12 92/96/12 88/82/12 87/81/12
f 85/75/3 88/82/3 92/96/3 89/93/3
f 90/97/13 89/98/13 93/99/13 94/100/13
f 91/101/14 90/97/14 94/100/14 95/102/14
f 95/102/15 96/103/15 92/104/15 91/101/15
f 89/98/16 92/104/16 96/103/16 93/99/16
f 94/100/11 93/99/11 76/105/11 75/106/11
f 95/102/4 94/100/4 75/106/4 77/107/4
f 77/107/12 78/108/12 96/103/12 95/102/12
f 93/99/3 96/103/3 78/108/3 76/105/3
f 75/106/6 76/105/6 98/109/6 97/110/6
f 76/105/6 78/108/6 99/111/6 98/109/6
f 78/108/6 77/107/6 100/112/6 99/111/6
f 77/107/6 75/106/6 97/110/6 100/112/6
f 106/113/11 107/114/11 102/78/11 101/77/11
f 107/114/3 108/115/3 103/79/3 102/78/3
f 108/115/12 105/116/12 104/80/12 103/79/12
f 105/116/4 106/113/4 101/77/4 104/80/4
f 113/117/4 114/118/4 115/119/4 116/120/4
f 114/118/11 117/121/11 118/122/11 115/119/11
f 117/121/3 119/123/3 120/124/3 118/122/3
f 119/123/12 113/117/12 116/120/12 120/124/12
f 100/125/4 97/126/4 110/127/4 109/128/4
f 97/126/11 98/129/11 111/130/11 110/127/11
f 98/129/3 99/131/3 112/132/3 111/130/3
f 99/131/12 100/125/12 109/128/12 112/132/12
f 109/128/17 110/127/17 114/118/17 113/117/17
f 106/113/18 105/116/18 116/120/18 115/119/18
f 110/127/19 111/130/19 117/121/19 114/118/19
f 107/114/20 106/113/20 115/119/20 118/122/20
f 111/130/21 112/132/21 119/123/21 117/121/21
f 108/115/22 107/114/22 118/122/22 120/124/22
f 112/132/23 109/128/23 113/117/23 119/123/23
f 105/116/24 108/115/24 120/124/24 116/120/24
