# Blender v2.93.5 OBJ File: ''
# www.blender.org
mtllib apartment_roof_1.mtl
o SM_Bld_Apartment_Roof_01_Mesh.013
v -2.666444 -0.000000 0.034646
v 2.356444 -0.000000 0.034646
v -2.809839 0.499867 0.455802
v 2.499839 0.499867 0.455802
v -2.809839 0.499868 -5.168199
v 2.499839 0.499868 -5.168199
v -2.666444 0.000001 -5.042792
v 2.356444 0.000001 -5.042792
v -2.666444 0.094921 -5.042792
v -2.666444 0.094920 0.034646
v 2.356444 0.094920 0.034646
v 2.356444 0.094921 -5.042792
v 2.411563 0.132862 0.169849
v -2.721565 0.132862 0.169849
v -2.721565 0.132863 -5.083694
v 2.411563 0.132863 -5.083694
v 2.411563 0.229365 0.169849
v -2.721565 0.229365 0.169849
v -2.721565 0.229365 -5.083694
v 2.411563 0.229365 -5.083694
v 2.471102 0.269960 0.349927
v -2.781102 0.269960 0.349927
v -2.781102 0.269961 -5.138172
v 2.471102 0.269961 -5.138172
v -1.812610 0.499867 0.455802
v 1.502610 0.499867 0.455802
v -2.781102 0.348494 -5.138172
v -2.781102 0.348493 0.349927
v 2.471102 0.348493 0.349927
v 2.471102 0.348494 -5.138172
v 2.499839 0.392162 0.455802
v -2.809839 0.392162 0.455802
v -2.809839 0.392163 -5.168199
v 2.499839 0.392163 -5.168199
v -0.155000 0.499868 -5.168199
v -1.812610 0.392162 0.455802
v -1.812610 0.348493 0.349927
v -1.812610 0.269960 0.349927
v -1.812610 0.229365 0.169849
v -1.812610 0.132862 0.169849
v -1.812610 0.094920 0.034646
v -1.812610 -0.000000 0.034646
v -0.155000 0.000001 -5.042792
v -0.155000 0.094921 -5.042792
v -0.155000 0.132863 -5.083694
v -0.155000 0.229365 -5.083694
v -0.155000 0.269961 -5.138172
v -0.155000 0.348494 -5.138172
v -0.155000 0.392163 -5.168199
v 1.502610 -0.000000 0.034646
v 1.502610 0.094920 0.034646
v 1.502610 0.132862 0.169849
v 1.502610 0.229365 0.169849
v 1.502610 0.269960 0.349927
v 1.502610 0.348493 0.349927
v 1.502610 0.392162 0.455802
v -1.548826 0.132862 0.581279
v -1.469447 0.094920 0.501830
v 1.159447 0.094920 0.501830
v 1.238826 0.132862 0.581279
v -1.469447 -0.000000 0.501830
v 1.159447 -0.000000 0.501830
v -1.548826 0.229365 0.581279
v 1.238826 0.229365 0.581279
v -1.618213 0.269960 0.687099
v 1.308213 0.269960 0.687099
v -1.674016 0.392162 0.749313
v -1.618213 0.348493 0.687099
v 1.308213 0.348493 0.687099
v 1.364016 0.392162 0.749313
v -1.674016 0.499867 0.749313
v 1.364016 0.499867 0.749313
vt 0.037983 0.325693
vt 0.037983 0.325693
vt 0.037983 0.325693
vt 0.037983 0.325693
vt 0.099806 0.231725
vt 0.099806 0.231725
vt 0.099806 0.231725
vt 0.037983 0.325693
vt 0.037983 0.325693
vt 0.037983 0.325693
vt 0.037983 0.325693
vt 0.037983 0.325693
vt 0.037983 0.325693
vt 0.037983 0.325693
vt 0.037983 0.325693
vt 0.099806 0.231725
vt 0.099806 0.231725
vt 0.099806 0.231725
vt 0.099806 0.231725
vt 0.099806 0.231725
vt 0.099806 0.231725
vt 0.099806 0.231725
vt 0.099806 0.231725
vt 0.099806 0.231725
vt 0.099806 0.231725
vt 0.099806 0.231725
vt 0.099806 0.231725
vt 0.037983 0.325693
vt 0.037983 0.325693
vt 0.037983 0.325693
vt 0.037983 0.325693
vt 0.037983 0.325693
vt 0.037983 0.325693
vt 0.100260 0.263232
vt 0.100260 0.263232
vt 0.100260 0.263232
vt 0.100260 0.263232
vt 0.100260 0.263232
vt 0.100260 0.263232
vt 0.100260 0.263232
vt 0.100260 0.263232
vt 0.100260 0.263232
vt 0.100260 0.263232
vt 0.100260 0.263232
vt 0.100260 0.263232
vt 0.100260 0.263232
vt 0.100260 0.263232
vt 0.100260 0.263232
vt 0.100260 0.263232
vt 0.100260 0.263232
vt 0.100260 0.263232
vt 0.100260 0.263232
vt 0.100260 0.263232
vt 0.100260 0.263232
vt 0.100260 0.263232
vt 0.100260 0.263232
vt 0.100260 0.263232
vt 0.100260 0.263232
vt 0.100260 0.263232
vt 0.100260 0.263232
vt 0.100260 0.263232
vt 0.100260 0.263232
vt 0.100260 0.263232
vt 0.100260 0.263232
vt 0.100260 0.263232
vt 0.100260 0.263232
vt 0.100260 0.263232
vt 0.100260 0.263232
vt 0.100260 0.263232
vt 0.100260 0.263232
vt 0.037983 0.325693
vt 0.037983 0.325693
vt 0.037983 0.325693
vt 0.099806 0.231725
vt 0.099806 0.231725
vt 0.037983 0.325693
vt 0.037983 0.325693
vt 0.037983 0.325693
vt 0.100260 0.263232
vt 0.100260 0.263232
vt 0.100260 0.263232
vt 0.100260 0.263232
vt 0.099806 0.231725
vt 0.037983 0.325693
vt 0.037983 0.325693
vt 0.037983 0.325693
vt 0.100260 0.263232
vt 0.100260 0.263232
vt 0.100260 0.263232
vt 0.100260 0.263232
vn 0.0000 -0.9024 0.4309
vn 0.0000 -1.0000 -0.0000
vn 0.5670 -0.8237 -0.0000
vn -0.5670 -0.8237 -0.0000
vn -1.0000 0.0000 0.0000
vn 0.0000 0.0000 1.0000
vn 1.0000 0.0000 0.0000
vn 0.0000 -0.9337 0.3582
vn -0.5633 -0.8262 -0.0000
vn 0.5633 -0.8262 -0.0000
vn 0.0000 -0.8185 0.5745
vn -0.8354 -0.5497 -0.0000
vn 0.8354 -0.5497 -0.0000
vn 0.0000 1.0000 0.0000
vn 0.0000 -0.9245 0.3813
vn 0.0000 -0.9755 0.2199
vn 0.0000 -0.9628 0.2702
vn 0.0000 0.0000 -1.0000
vn 0.0000 -0.7331 -0.6801
vn -0.0000 -0.8019 -0.5975
vn -0.0000 -0.5666 -0.8240
vn -0.3089 -0.9268 0.2134
vn 0.3089 -0.9268 0.2134
vn -0.8059 0.0000 0.5920
vn 0.8059 0.0000 0.5920
vn -0.8418 0.0000 0.5397
vn 0.8418 0.0000 0.5397
vn -0.3096 -0.9318 0.1895
vn 0.3096 -0.9318 0.1895
vn -0.4989 -0.8257 0.2634
vn 0.4989 -0.8257 0.2634
vn -0.8663 -0.0000 0.4995
vn 0.8663 -0.0000 0.4995
vn -0.9043 0.0000 0.4270
vn 0.9043 -0.0000 0.4270
usemtl lambert2.001
s 1
f 57/1/1 58/2/1 59/3/1 60/4/1
f 50/5/2 42/6/2 43/7/2
f 11/8/3 12/9/3 16/10/3 13/11/3
f 9/12/4 10/13/4 14/14/4 15/15/4
f 7/16/5 1/17/5 10/18/5 9/19/5
f 59/20/6 58/21/6 61/22/6 62/23/6
f 2/24/7 8/25/7 12/26/7 11/27/7
f 63/28/6 57/1/6 60/4/6 64/29/6
f 15/15/5 14/14/5 18/30/5 19/31/5
f 13/11/7 16/10/7 20/32/7 17/33/7
f 65/34/8 63/35/8 64/36/8 66/37/8
f 19/38/9 18/39/9 22/40/9 23/41/9
f 17/42/10 20/43/10 24/44/10 21/45/10
f 67/46/11 68/47/11 69/48/11 70/49/11
f 27/50/12 28/51/12 32/52/12 33/53/12
f 29/54/13 30/55/13 34/56/13 31/57/13
f 35/58/14 25/59/14 26/60/14
f 35/58/14 26/60/14 4/61/14 6/62/14
f 23/41/5 22/40/5 28/51/5 27/50/5
f 69/48/6 68/47/6 65/34/6 66/37/6
f 21/45/7 24/44/7 30/55/7 29/54/7
f 72/63/6 71/64/6 67/46/6 70/49/6
f 33/53/5 32/52/5 3/65/5 5/66/5
f 31/57/7 34/56/7 6/62/7 4/61/7
f 32/52/6 36/67/6 25/59/6 3/65/6
f 28/51/15 37/68/15 36/67/15 32/52/15
f 22/40/6 38/69/6 37/68/6 28/51/6
f 18/39/16 39/70/16 38/69/16 22/40/16
f 14/14/6 40/71/6 39/72/6 18/30/6
f 10/13/17 41/73/17 40/71/17 14/14/17
f 1/17/6 42/6/6 41/74/6 10/18/6
f 7/16/2 43/7/2 42/6/2 1/17/2
f 9/19/18 44/75/18 43/7/18 7/16/18
f 15/15/19 45/76/19 44/77/19 9/12/19
f 19/31/18 46/78/18 45/76/18 15/15/18
f 23/41/20 47/79/20 46/80/20 19/38/20
f 27/50/18 48/81/18 47/79/18 23/41/18
f 33/53/21 49/82/21 48/81/21 27/50/21
f 5/66/18 35/58/18 49/82/18 33/53/18
f 25/59/14 35/58/14 5/66/14 3/65/14
f 48/81/21 49/82/21 34/56/21 30/55/21
f 47/79/18 48/81/18 30/55/18 24/44/18
f 46/80/20 47/79/20 24/44/20 20/43/20
f 45/76/18 46/78/18 20/32/18 16/10/18
f 44/77/19 45/76/19 16/10/19 12/9/19
f 43/7/18 44/75/18 12/26/18 8/25/18
f 50/5/2 43/7/2 8/25/2 2/24/2
f 51/83/6 50/5/6 2/24/6 11/27/6
f 52/84/17 51/85/17 11/8/17 13/11/17
f 53/86/6 52/84/6 13/11/6 17/33/6
f 54/87/16 53/88/16 17/42/16 21/45/16
f 55/89/6 54/87/6 21/45/6 29/54/6
f 56/90/15 55/89/15 29/54/15 31/57/15
f 26/60/6 56/90/6 31/57/6 4/61/6
f 49/82/18 35/58/18 6/62/18 34/56/18
f 40/71/22 41/73/22 58/2/22 57/1/22
f 51/85/23 52/84/23 60/4/23 59/3/23
f 41/74/24 42/6/24 61/22/24 58/21/24
f 42/6/2 50/5/2 62/23/2 61/22/2
f 50/5/25 51/83/25 59/20/25 62/23/25
f 39/72/26 40/71/26 57/1/26 63/28/26
f 52/84/27 53/86/27 64/29/27 60/4/27
f 38/69/28 39/70/28 63/35/28 65/34/28
f 53/88/29 54/87/29 66/37/29 64/36/29
f 36/67/30 37/68/30 68/47/30 67/46/30
f 55/89/31 56/90/31 70/49/31 69/48/31
f 37/68/32 38/69/32 65/34/32 68/47/32
f 54/87/33 55/89/33 69/48/33 66/37/33
f 26/60/14 25/59/14 71/64/14 72/63/14
f 25/59/34 36/67/34 67/46/34 71/64/34
f 56/90/35 26/60/35 72/63/35 70/49/35
