# Blender v2.93.5 OBJ File: ''
# www.blender.org
mtllib chair.mtl
o SM_Prop_ShopInterior_Chair_01_Mesh.005
v -0.246643 0.478404 -0.199997
v -0.246643 0.478404 0.293285
v -0.246643 0.561336 -0.199997
v -0.246643 0.561336 0.293285
v 0.246643 0.561336 -0.199997
v 0.246643 0.561336 0.293285
v 0.246643 0.478404 -0.199997
v 0.246643 0.478404 0.293285
v -0.216797 0.798174 -0.261988
v -0.216797 0.804550 -0.197589
v -0.216797 1.032387 -0.286927
v -0.216797 1.032387 -0.221948
v 0.216782 1.032387 -0.286927
v 0.216782 1.032387 -0.221948
v 0.216782 0.798174 -0.261988
v 0.216782 0.804550 -0.197589
v 0.202423 0.000000 -0.241423
v 0.202438 0.000000 -0.198128
v 0.202438 1.047451 -0.293284
v 0.202423 1.047451 -0.249989
v 0.245712 1.047451 -0.293284
v 0.245712 1.047451 -0.249988
v 0.245712 0.000000 -0.241423
v 0.245712 0.000000 -0.198128
v 0.202423 -0.000000 0.248199
v 0.202423 -0.000000 0.291492
v 0.202423 0.485884 0.248199
v 0.202423 0.485884 0.291493
v 0.245712 0.485884 0.248199
v 0.245712 0.485884 0.291494
v 0.245712 -0.000000 0.248199
v 0.245712 -0.000000 0.291493
v -0.244858 0.000000 -0.241423
v -0.244858 0.000000 -0.198128
v -0.244858 1.047451 -0.293284
v -0.244858 1.047451 -0.249988
v -0.201569 1.047451 -0.293284
v -0.201569 1.047451 -0.249988
v -0.201569 0.000000 -0.241423
v -0.201569 0.000000 -0.198128
v -0.244858 -0.000000 0.248199
v -0.244858 -0.000000 0.291492
v -0.244858 0.485884 0.248199
v -0.244858 0.485884 0.291493
v -0.201569 0.485884 0.248199
v -0.201569 0.485884 0.291493
v -0.201569 -0.000000 0.248199
v -0.201569 -0.000000 0.291492
v -0.201569 0.560284 -0.241423
v -0.244858 0.560284 -0.241423
v -0.244858 0.560284 -0.198128
v -0.201569 0.560284 -0.198128
v 0.202423 0.561019 -0.241423
v 0.245712 0.561019 -0.241423
v 0.245712 0.561019 -0.198128
v 0.202438 0.561019 -0.198128
v -0.190674 0.591430 0.237306
v -0.190674 0.591430 -0.144017
v 0.190659 0.591430 0.237306
v 0.190659 0.591430 -0.144017
v 0.167587 0.833605 -0.170430
v -0.167603 0.833605 -0.170430
v 0.167587 1.009731 -0.189261
v -0.167603 1.009731 -0.189261
vt 0.352020 0.424212
vt 0.352020 0.424212
vt 0.352020 0.424212
vt 0.352020 0.424212
vt 0.352020 0.424212
vt 0.352020 0.424212
vt 0.352020 0.424212
vt 0.352020 0.424212
vt 0.352020 0.424212
vt 0.352020 0.424212
vt 0.352020 0.424212
vt 0.352020 0.424212
vt 0.352020 0.424212
vt 0.352020 0.424212
vt 0.352020 0.424212
vt 0.352020 0.424212
vt 0.352020 0.424212
vt 0.352020 0.424212
vt 0.352020 0.424212
vt 0.352020 0.424212
vt 0.352020 0.424212
vt 0.352020 0.424212
vt 0.352020 0.424212
vt 0.352020 0.424212
vt 0.103215 0.230305
vt 0.103215 0.230305
vt 0.103215 0.230305
vt 0.103215 0.230305
vt 0.103215 0.230305
vt 0.103215 0.230305
vt 0.103215 0.230305
vt 0.103215 0.230305
vt 0.103215 0.230305
vt 0.103215 0.230305
vt 0.103215 0.230305
vt 0.103215 0.230305
vt 0.103215 0.230305
vt 0.103215 0.230305
vt 0.103215 0.230305
vt 0.103215 0.230305
vt 0.103215 0.230305
vt 0.103215 0.230305
vt 0.103215 0.230305
vt 0.103215 0.230305
vt 0.103215 0.230305
vt 0.103215 0.230305
vt 0.103215 0.230305
vt 0.103215 0.230305
vt 0.103215 0.230305
vt 0.103215 0.230305
vt 0.103215 0.230305
vt 0.103215 0.230305
vt 0.103215 0.230305
vt 0.103215 0.230305
vt 0.103215 0.230305
vt 0.103215 0.230305
vt 0.103215 0.230305
vt 0.103215 0.230305
vt 0.103215 0.230305
vt 0.103215 0.230305
vt 0.103215 0.230305
vt 0.103215 0.230305
vt 0.103215 0.230305
vt 0.103215 0.230305
vn -1.0000 0.0000 0.0000
vn 0.0000 1.0000 0.0000
vn 1.0000 0.0000 0.0000
vn 0.0000 -1.0000 -0.0000
vn 0.0000 0.0000 1.0000
vn 0.0000 0.0000 -1.0000
vn 0.0000 -0.9951 0.0985
vn 0.0000 0.1063 0.9943
vn 0.0000 -0.1059 -0.9944
vn -1.0000 0.0000 0.0004
vn -1.0000 0.0000 0.0002
vn 0.0000 0.1059 0.9944
vn -0.0000 -0.1060 -0.9944
vn -0.0000 0.1060 0.9944
vn -0.4736 0.8808 0.0000
vn 0.0000 0.8808 0.4735
vn 0.4735 0.8808 0.0000
vn 0.0000 0.8808 -0.4735
vn 0.0000 -0.6829 0.7305
vn 0.5218 0.0907 0.8482
vn 0.0000 0.8219 0.5697
vn -0.5218 0.0907 0.8482
usemtl lambert1.005
s 1
f 1/1/1 2/2/1 4/3/1 3/4/1
f 58/5/2 57/6/2 59/7/2 60/8/2
f 5/9/3 6/10/3 8/11/3 7/12/3
f 7/12/4 8/11/4 2/2/4 1/1/4
f 2/2/5 8/11/5 6/10/5 4/3/5
f 7/12/6 1/1/6 3/4/6 5/9/6
f 9/13/1 10/14/1 12/15/1 11/16/1
f 11/16/2 12/15/2 14/17/2 13/18/2
f 13/18/3 14/17/3 16/19/3 15/20/3
f 15/20/7 16/19/7 10/14/7 9/13/7
f 62/21/8 61/22/8 63/23/8 64/24/8
f 15/20/9 9/13/9 11/16/9 13/18/9
f 17/25/10 18/26/10 56/27/11 53/28/11
f 19/29/2 20/30/2 22/31/2 21/32/2
f 54/33/3 55/34/3 24/35/3 23/36/3
f 23/36/4 24/35/4 18/26/4 17/25/4
f 18/26/5 24/35/5 55/34/5 56/27/5
f 23/36/6 17/25/6 53/28/6 54/33/6
f 25/37/1 26/38/1 28/39/1 27/40/1
f 27/40/2 28/39/2 30/41/2 29/42/2
f 29/42/3 30/41/3 32/43/3 31/44/3
f 31/44/4 32/43/4 26/38/4 25/37/4
f 26/38/5 32/43/5 30/41/5 28/39/5
f 31/44/6 25/37/6 27/40/6 29/42/6
f 50/45/1 51/46/1 36/47/1 35/48/1
f 35/48/2 36/47/2 38/49/2 37/50/2
f 37/50/3 38/49/3 52/51/3 49/52/3
f 39/53/4 40/54/4 34/55/4 33/56/4
f 51/46/12 52/51/12 38/49/12 36/47/12
f 49/52/9 50/45/9 35/48/9 37/50/9
f 41/57/1 42/58/1 44/59/1 43/60/1
f 43/60/2 44/59/2 46/61/2 45/62/2
f 45/62/3 46/61/3 48/63/3 47/64/3
f 47/64/4 48/63/4 42/58/4 41/57/4
f 42/58/5 48/63/5 46/61/5 44/59/5
f 47/64/6 41/57/6 43/60/6 45/62/6
f 39/53/6 33/56/6 50/45/6 49/52/6
f 33/56/1 34/55/1 51/46/1 50/45/1
f 34/55/5 40/54/5 52/51/5 51/46/5
f 49/52/3 52/51/3 40/54/3 39/53/3
f 54/33/13 53/28/13 19/29/13 21/32/13
f 21/32/3 22/31/3 55/34/3 54/33/3
f 56/27/14 55/34/14 22/31/14 20/30/14
f 53/28/11 56/27/11 20/30/1 19/29/1
f 3/4/15 4/3/15 57/6/15 58/5/15
f 4/3/16 6/10/16 59/7/16 57/6/16
f 6/10/17 5/9/17 60/8/17 59/7/17
f 5/9/18 3/4/18 58/5/18 60/8/18
f 10/14/19 16/19/19 61/22/19 62/21/19
f 16/19/20 14/17/20 63/23/20 61/22/20
f 14/17/21 12/15/21 64/24/21 63/23/21
f 12/15/22 10/14/22 62/21/22 64/24/22
