# Blender v2.93.5 OBJ File: ''
# www.blender.org
mtllib police_car_glass.mtl
o SM_Veh_Car_Police_Glass_Mesh.001
v 0.000000 1.379506 0.762792
v 0.000000 1.557894 0.478260
v -0.556830 1.532280 0.443929
v -0.639677 1.371001 0.714627
v -0.676292 1.503825 0.439623
v -0.715363 1.343509 0.684824
v 0.000000 1.131738 1.109281
v -0.679234 1.131738 1.015114
v -0.729628 1.129549 0.952924
v 0.639677 1.371001 0.714628
v 0.556830 1.532280 0.443929
v 0.715362 1.343509 0.684824
v 0.676292 1.503825 0.439623
v 0.679234 1.131738 1.015114
v 0.729628 1.129549 0.952924
v 0.822557 1.113304 0.671617
v 0.759757 1.265310 0.672143
v 0.813380 1.134916 0.779436
v 0.824711 1.122595 -0.008497
v 0.708761 1.576401 -0.122637
v 0.741210 1.502612 0.344263
v 0.702934 1.586770 -0.264293
v 0.827813 1.128589 -0.199787
v 0.702934 1.570637 -0.672251
v 0.838807 1.146180 -0.674357
v 0.812705 1.335448 -0.951278
v 0.842725 1.148876 -0.706519
v 0.858101 1.165743 -0.998891
v 0.705972 1.564631 -0.701073
v 0.733307 1.530894 -0.826670
v -0.822558 1.113304 0.671617
v -0.813380 1.134916 0.779436
v -0.759757 1.265310 0.672143
v -0.824711 1.122595 -0.008497
v -0.741210 1.502612 0.344263
v -0.708762 1.576401 -0.122637
v -0.702934 1.586770 -0.264293
v -0.702934 1.570637 -0.672251
v -0.827814 1.128589 -0.199787
v -0.838807 1.146180 -0.674357
v -0.812706 1.335448 -0.951278
v -0.858102 1.165743 -0.998891
v -0.842725 1.148876 -0.706519
v -0.705972 1.564631 -0.701073
v -0.733308 1.530894 -0.826670
v 0.000000 1.550120 -1.170946
v 0.000000 1.412473 -1.372513
v -0.515366 1.388343 -1.356276
v -0.539041 1.525990 -1.159958
v -0.660322 1.353902 -1.321547
v -0.616177 1.508449 -1.153902
v -0.709751 1.336886 -1.305724
v -0.667477 1.484665 -1.163087
v -0.664573 1.201051 -1.487354
v -0.715997 1.190727 -1.446796
v -0.474262 1.228015 -1.535047
v 0.000000 1.231865 -1.556474
v 0.539041 1.525990 -1.159958
v 0.515366 1.388343 -1.356276
v 0.616177 1.508449 -1.153902
v 0.660322 1.353902 -1.321547
v 0.667477 1.484665 -1.163087
v 0.709751 1.336886 -1.305724
v 0.715997 1.190727 -1.446796
v 0.664573 1.201051 -1.487354
v 0.474262 1.228015 -1.535047
vt 0.459656 0.084608
vt 0.459656 0.084608
vt 0.459656 0.084608
vt 0.459656 0.084608
vt 0.459656 0.084608
vt 0.459656 0.084608
vt 0.459656 0.084608
vt 0.459656 0.084608
vt 0.459656 0.084608
vt 0.459656 0.084608
vt 0.459656 0.084608
vt 0.459656 0.084608
vt 0.459656 0.084608
vt 0.459656 0.084608
vt 0.459656 0.084608
vt 0.459656 0.084608
vt 0.459656 0.084608
vt 0.459656 0.084608
vt 0.459656 0.084608
vt 0.459656 0.084608
vt 0.459656 0.084608
vt 0.459656 0.084608
vt 0.459656 0.084608
vt 0.459656 0.084608
vt 0.459656 0.084608
vt 0.459656 0.084608
vt 0.459656 0.084608
vt 0.459656 0.084608
vt 0.459656 0.084608
vt 0.459656 0.084608
vt 0.459656 0.084608
vt 0.459656 0.084608
vt 0.459656 0.084608
vt 0.459656 0.084608
vt 0.459656 0.084608
vt 0.459656 0.084608
vt 0.459656 0.084608
vt 0.459656 0.084608
vt 0.459656 0.084608
vt 0.459656 0.084608
vt 0.459656 0.084608
vt 0.459656 0.084608
vt 0.459656 0.084608
vt 0.459656 0.084608
vt 0.459656 0.084608
vt 0.459656 0.084608
vt 0.459656 0.084608
vt 0.459656 0.084608
vt 0.459656 0.084608
vt 0.459656 0.084608
vt 0.459656 0.084608
vt 0.459656 0.084608
vt 0.459656 0.084608
vt 0.459656 0.084608
vt 0.459656 0.084608
vt 0.459656 0.084608
vt 0.459656 0.084608
vt 0.459656 0.084608
vt 0.459656 0.084608
vt 0.459656 0.084608
vt 0.459656 0.084608
vt 0.459656 0.084608
vt 0.459656 0.084608
vt 0.459656 0.084608
vt 0.459656 0.084608
vt 0.459656 0.084608
vn -0.0599 0.8555 0.5144
vn -0.3178 0.8365 0.4463
vn -0.0696 0.7990 0.5972
vn -0.5262 0.6885 0.4990
vn 0.0599 0.8555 0.5144
vn 0.3178 0.8365 0.4463
vn 0.0696 0.7990 0.5972
vn 0.5262 0.6885 0.4990
vn 0.9242 0.3818 0.0021
vn 0.9702 0.2405 -0.0294
vn 0.9778 0.2093 0.0060
vn 0.9022 0.3720 0.2182
vn 0.9651 0.2616 -0.0103
vn 0.9519 0.3046 0.0333
vn 0.9684 0.2409 0.0648
vn 0.9433 0.3087 0.1224
vn 0.9438 0.3080 0.1198
vn 0.9436 0.3082 0.1208
vn 0.9436 0.3083 0.1208
vn 0.9438 0.3080 0.1197
vn 0.9440 0.3078 0.1188
vn -0.9242 0.3818 0.0021
vn -0.9702 0.2405 -0.0294
vn -0.9778 0.2093 0.0060
vn -0.9022 0.3720 0.2182
vn -0.9651 0.2616 -0.0103
vn -0.9519 0.3046 0.0333
vn -0.9684 0.2409 0.0648
vn -0.9433 0.3087 0.1224
vn -0.9435 0.3083 0.1212
vn -0.9438 0.3081 0.1200
vn -0.9440 0.3078 0.1188
vn -0.0522 0.8198 -0.5703
vn -0.2851 0.7552 -0.5902
vn -0.3319 0.7202 -0.6093
vn -0.5025 0.6278 -0.5945
vn -0.2893 0.6928 -0.6606
vn -0.0466 0.7252 -0.6869
vn 0.0522 0.8198 -0.5703
vn 0.2851 0.7552 -0.5902
vn 0.3319 0.7202 -0.6093
vn 0.5025 0.6278 -0.5945
vn 0.2893 0.6928 -0.6606
vn 0.0466 0.7252 -0.6869
usemtl lambert18.006
s 1
f 1/1/1 2/2/1 3/3/1 4/4/1
f 4/4/2 3/3/2 5/5/2 6/6/2
f 7/7/3 1/1/3 4/4/3 8/8/3
f 8/8/4 4/4/4 6/6/4 9/9/4
f 1/1/5 10/10/5 11/11/5 2/2/5
f 10/10/6 12/12/6 13/13/6 11/11/6
f 7/7/7 14/14/7 10/10/7 1/1/7
f 14/14/8 15/15/8 12/12/8 10/10/8
f 16/16/9 17/17/9 18/18/9
f 19/19/10 20/20/10 21/21/10
f 19/19/11 21/21/11 16/16/11
f 16/16/12 21/21/12 17/17/12
f 22/22/13 23/23/13 24/24/13
f 24/24/14 23/23/14 25/25/14
f 26/26/15 27/27/15 28/28/15
f 29/29/16 27/27/17 30/30/18
f 30/30/19 27/27/20 26/26/21
f 31/31/22 32/32/22 33/33/22
f 34/34/23 35/35/23 36/36/23
f 34/34/24 31/31/24 35/35/24
f 31/31/25 33/33/25 35/35/25
f 37/37/26 38/38/26 39/39/26
f 38/38/27 40/40/27 39/39/27
f 41/41/28 42/42/28 43/43/28
f 44/44/29 45/45/30 43/43/31
f 45/45/30 41/41/32 43/43/31
f 46/46/33 47/47/33 48/48/33 49/49/33
f 49/49/34 48/48/34 50/50/34 51/51/34
f 51/51/35 50/50/35 52/52/35 53/53/35
f 50/50/36 54/54/36 55/55/36 52/52/36
f 48/48/37 56/56/37 54/54/37 50/50/37
f 47/47/38 57/57/38 56/56/38 48/48/38
f 46/46/39 58/58/39 59/59/39 47/47/39
f 58/58/40 60/60/40 61/61/40 59/59/40
f 60/60/41 62/62/41 63/63/41 61/61/41
f 61/61/42 63/63/42 64/64/42 65/65/42
f 59/59/43 61/61/43 65/65/43 66/66/43
f 47/47/44 59/59/44 66/66/44 57/57/44
