# Blender v2.93.5 OBJ File: ''
# www.blender.org
mtllib apartment_roof_corner_1.mtl
o SM_Bld_Apartment_Roof_Corner_01_Mesh.006
v -2.986720 0.000001 -5.042792
v -2.986720 -0.000000 0.034647
v -3.407878 0.499868 -5.168199
v -3.407878 0.499867 0.455803
v -2.986720 0.094920 -5.042792
v -2.986720 0.094919 0.034647
v -3.121924 0.132860 0.169849
v -3.121924 0.132861 -5.083694
v -3.121924 0.229365 0.169849
v -3.121924 0.229365 -5.083694
v -3.302005 0.269958 0.349927
v -3.302005 0.269959 -5.138172
v -3.407878 0.499867 -4.157609
v -3.407878 0.499867 -0.842390
v -3.302005 0.348494 -5.138172
v -3.302005 0.348493 0.349927
v -3.407878 0.392162 0.455803
v -3.407878 0.392163 -5.168199
v -3.407878 0.392163 -4.157609
v -3.302005 0.348494 -4.157609
v -3.302005 0.269959 -4.157609
v -3.121924 0.229365 -4.157609
v -3.121924 0.132861 -4.157609
v -2.986720 0.094920 -4.157609
v -2.986720 0.000001 -4.157609
v -2.986720 0.000000 -0.842390
v -2.986720 0.094919 -0.842390
v -3.121924 0.132860 -0.842390
v -3.121924 0.229365 -0.842390
v -3.302005 0.269959 -0.842390
v -3.302005 0.348493 -0.842390
v -3.407878 0.392163 -0.842390
v -3.533355 0.132861 -3.893825
v -3.453906 0.094920 -3.814447
v -3.453906 0.094919 -1.185552
v -3.533355 0.132860 -1.106174
v -3.453906 0.000001 -3.814447
v -3.453906 0.000000 -1.185552
v -3.533355 0.229365 -3.893825
v -3.533355 0.229365 -1.106174
v -3.639174 0.269959 -3.963212
v -3.639174 0.269959 -1.036787
v -3.701388 0.392163 -4.019016
v -3.639174 0.348494 -3.963212
v -3.639174 0.348493 -1.036787
v -3.701388 0.392163 -0.980983
v -3.701388 0.499867 -4.019016
v -3.701388 0.499867 -0.980983
v 2.059368 -0.000000 0.034646
v 2.202762 0.499867 0.455802
v 2.202762 0.499868 -5.168199
v 2.059368 0.000001 -5.042793
v 2.059368 0.094919 0.034646
v 2.059368 0.094920 -5.042793
v 2.114486 0.132860 0.169849
v 2.114486 0.132861 -5.083694
v 2.114486 0.229365 0.169849
v 2.114486 0.229365 -5.083694
v 2.174026 0.269958 0.349927
v 2.174026 0.269959 -5.138172
v -2.109683 0.499867 0.455802
v 1.205532 0.499867 0.455802
v 2.174026 0.348493 0.349927
v 2.174026 0.348494 -5.138172
v 2.202762 0.392162 0.455802
v 2.202762 0.392163 -5.168199
v -0.452076 0.499868 -5.168199
v -2.109683 0.392162 0.455802
v -2.109683 0.348493 0.349927
v -2.109683 0.269958 0.349927
v -2.109683 0.229365 0.169849
v -2.109683 0.132860 0.169849
v -2.109683 0.094919 0.034646
v -2.109683 -0.000000 0.034646
v -0.452076 0.000001 -5.042793
v -0.452076 0.094920 -5.042793
v -0.452076 0.132861 -5.083694
v -0.452076 0.229365 -5.083694
v -0.452076 0.269959 -5.138173
v -0.452076 0.348494 -5.138173
v -0.452076 0.392163 -5.168199
v 1.205532 -0.000000 0.034646
v 1.205532 0.094919 0.034646
v 1.205532 0.132860 0.169849
v 1.205532 0.229365 0.169849
v 1.205532 0.269958 0.349927
v 1.205532 0.348493 0.349927
v 1.205532 0.392162 0.455802
v -1.845901 0.132860 0.581279
v -1.766521 0.094919 0.501829
v 0.862369 0.094919 0.501829
v 0.941749 0.132860 0.581279
v -1.766521 -0.000000 0.501829
v 0.862369 -0.000000 0.501829
v -1.845901 0.229365 0.581279
v 0.941749 0.229365 0.581279
v -1.915286 0.269958 0.687098
v 1.011135 0.269958 0.687098
v -1.971092 0.392162 0.749313
v -1.915286 0.348493 0.687098
v 1.011135 0.348493 0.687098
v 1.066940 0.392162 0.749313
v -1.971092 0.499867 0.749313
v 1.066940 0.499867 0.749313
vt 0.037983 0.325693
vt 0.037983 0.325693
vt 0.037983 0.325693
vt 0.037983 0.325693
vt 0.099806 0.231725
vt 0.099806 0.231725
vt 0.099806 0.231725
vt 0.099806 0.231725
vt 0.037983 0.325693
vt 0.037983 0.325693
vt 0.100260 0.263232
vt 0.100260 0.263232
vt 0.100260 0.263232
vt 0.100260 0.263232
vt 0.100260 0.263232
vt 0.100260 0.263232
vt 0.100260 0.263232
vt 0.100260 0.263232
vt 0.100260 0.263232
vt 0.100260 0.263232
vt 0.100260 0.263232
vt 0.100260 0.263232
vt 0.100260 0.263232
vt 0.100260 0.263232
vt 0.100260 0.263232
vt 0.100260 0.263232
vt 0.100260 0.263232
vt 0.100260 0.263232
vt 0.100260 0.263232
vt 0.100260 0.263232
vt 0.037983 0.325693
vt 0.037983 0.325693
vt 0.037983 0.325693
vt 0.037983 0.325693
vt 0.037983 0.325693
vt 0.037983 0.325693
vt 0.099806 0.231725
vt 0.099806 0.231725
vt 0.099806 0.231725
vt 0.099806 0.231725
vt 0.099806 0.231725
vt 0.099806 0.231725
vt 0.099806 0.231725
vt 0.099806 0.231725
vt 0.037983 0.325693
vt 0.037983 0.325693
vt 0.037983 0.325693
vt 0.037983 0.325693
vt 0.037983 0.325693
vt 0.037983 0.325693
vt 0.100260 0.263232
vt 0.100260 0.263232
vt 0.100260 0.263232
vt 0.100260 0.263232
vt 0.100260 0.263232
vt 0.100260 0.263232
vt 0.100260 0.263232
vt 0.100260 0.263232
vt 0.100260 0.263232
vt 0.100260 0.263232
vt 0.037983 0.325693
vt 0.037983 0.325693
vt 0.037983 0.325693
vt 0.037983 0.325693
vt 0.099806 0.231725
vt 0.099806 0.231725
vt 0.099806 0.231725
vt 0.037983 0.325693
vt 0.037983 0.325693
vt 0.037983 0.325693
vt 0.037983 0.325693
vt 0.099806 0.231725
vt 0.099806 0.231725
vt 0.099806 0.231725
vt 0.099806 0.231725
vt 0.099806 0.231725
vt 0.099806 0.231725
vt 0.099806 0.231725
vt 0.099806 0.231725
vt 0.037983 0.325693
vt 0.037983 0.325693
vt 0.037983 0.325693
vt 0.037983 0.325693
vt 0.100260 0.263232
vt 0.100260 0.263232
vt 0.100260 0.263232
vt 0.100260 0.263232
vt 0.100260 0.263232
vt 0.100260 0.263232
vt 0.100260 0.263232
vt 0.100260 0.263232
vt 0.100260 0.263232
vt 0.100260 0.263232
vt 0.100260 0.263232
vt 0.100260 0.263232
vt 0.100260 0.263232
vt 0.100260 0.263232
vt 0.100260 0.263232
vt 0.100260 0.263232
vt 0.100260 0.263232
vt 0.100260 0.263232
vt 0.100260 0.263232
vt 0.100260 0.263232
vt 0.100260 0.263232
vt 0.100260 0.263232
vt 0.100260 0.263232
vt 0.100260 0.263232
vt 0.100260 0.263232
vt 0.100260 0.263232
vt 0.100260 0.263232
vt 0.037983 0.325693
vt 0.037983 0.325693
vt 0.037983 0.325693
vt 0.099806 0.231725
vt 0.099806 0.231725
vt 0.037983 0.325693
vt 0.037983 0.325693
vt 0.037983 0.325693
vt 0.100260 0.263232
vt 0.100260 0.263232
vt 0.100260 0.263232
vt 0.100260 0.263232
vt 0.099806 0.231725
vt 0.037983 0.325693
vt 0.037983 0.325693
vt 0.037983 0.325693
vt 0.100260 0.263232
vt 0.100260 0.263232
vt 0.100260 0.263232
vt 0.100260 0.263232
vn -0.4309 -0.9024 -0.0000
vn -1.0000 0.0000 0.0000
vn -0.3582 -0.9337 -0.0000
vn -0.5745 -0.8185 -0.0000
vn -0.3813 -0.9244 -0.0000
vn -0.2199 -0.9755 -0.0000
vn -0.2702 -0.9628 -0.0000
vn -0.2134 -0.9268 -0.3089
vn -0.2134 -0.9268 0.3089
vn -0.5920 0.0000 -0.8059
vn -0.0000 -1.0000 -0.0000
vn -0.5920 0.0000 0.8059
vn -0.5397 0.0000 -0.8418
vn -0.5397 -0.0000 0.8418
vn -0.1895 -0.9318 -0.3096
vn -0.1895 -0.9318 0.3096
vn -0.2634 -0.8257 -0.4989
vn -0.2634 -0.8257 0.4989
vn -0.4995 0.0000 -0.8663
vn -0.4995 0.0000 0.8663
vn -0.0000 1.0000 0.0000
vn -0.4270 0.0000 -0.9043
vn -0.4270 0.0000 0.9043
vn 0.0000 -0.9024 0.4309
vn 0.5670 -0.8237 -0.0000
vn 0.0000 0.0000 1.0000
vn 1.0000 0.0000 0.0000
vn 0.0000 -0.9337 0.3582
vn 0.5633 -0.8262 -0.0000
vn 0.0000 -0.8185 0.5745
vn 0.8354 -0.5497 -0.0000
vn 0.0000 -0.9245 0.3813
vn 0.0000 -0.9755 0.2199
vn 0.0000 -0.9628 0.2702
vn -0.0000 0.0000 -1.0000
vn -0.0000 -0.7331 -0.6801
vn -0.0000 -0.8019 -0.5975
vn -0.0000 -0.5666 -0.8240
vn -0.3089 -0.9268 0.2134
vn 0.3089 -0.9268 0.2134
vn -0.8059 -0.0000 0.5920
vn 0.8059 -0.0000 0.5920
vn -0.8418 0.0000 0.5397
vn 0.8418 0.0000 0.5397
vn -0.3096 -0.9318 0.1895
vn 0.3096 -0.9318 0.1895
vn -0.4989 -0.8257 0.2634
vn 0.4989 -0.8257 0.2634
vn -0.8663 0.0000 0.4995
vn 0.8663 0.0000 0.4995
vn -0.9043 0.0000 0.4270
vn 0.9043 0.0000 0.4270
usemtl lambert5
s 1
f 33/1/1 34/2/1 35/3/1 36/4/1
f 35/5/2 34/6/2 37/7/2 38/8/2
f 39/9/2 33/1/2 36/4/2 40/10/2
f 41/11/3 39/12/3 40/13/3 42/14/3
f 43/15/4 44/16/4 45/17/4 46/18/4
f 45/17/2 44/16/2 41/11/2 42/14/2
f 48/19/2 47/20/2 43/15/2 46/18/2
f 18/21/2 19/22/2 13/23/2 3/24/2
f 15/25/5 20/26/5 19/22/5 18/21/5
f 12/27/2 21/28/2 20/26/2 15/25/2
f 10/29/6 22/30/6 21/28/6 12/27/6
f 8/31/2 23/32/2 22/33/2 10/34/2
f 5/35/7 24/36/7 23/32/7 8/31/7
f 1/37/2 25/38/2 24/39/2 5/40/2
f 27/41/2 26/42/2 2/43/2 6/44/2
f 28/45/7 27/46/7 6/47/7 7/48/7
f 29/49/2 28/45/2 7/48/2 9/50/2
f 30/51/6 29/52/6 9/53/6 11/54/6
f 31/55/2 30/51/2 11/54/2 16/56/2
f 32/57/5 31/55/5 16/56/5 17/58/5
f 14/59/2 32/57/2 17/58/2 4/60/2
f 23/32/8 24/36/8 34/2/8 33/1/8
f 27/46/9 28/45/9 36/4/9 35/3/9
f 24/39/10 25/38/10 37/7/10 34/6/10
f 25/38/11 26/42/11 38/8/11 37/7/11
f 26/42/12 27/41/12 35/5/12 38/8/12
f 22/33/13 23/32/13 33/1/13 39/9/13
f 28/45/14 29/49/14 40/10/14 36/4/14
f 21/28/15 22/30/15 39/12/15 41/11/15
f 29/52/16 30/51/16 42/14/16 40/13/16
f 19/22/17 20/26/17 44/16/17 43/15/17
f 31/55/18 32/57/18 46/18/18 45/17/18
f 20/26/19 21/28/19 41/11/19 44/16/19
f 30/51/20 31/55/20 45/17/20 42/14/20
f 14/59/21 13/23/21 47/20/21 48/19/21
f 13/23/22 19/22/22 43/15/22 47/20/22
f 32/57/23 14/59/23 48/19/23 46/18/23
f 89/61/24 90/62/24 91/63/24 92/64/24
f 82/65/11 74/66/11 75/67/11
f 53/68/25 54/69/25 56/70/25 55/71/25
f 91/72/26 90/73/26 93/74/26 94/75/26
f 49/76/27 52/77/27 54/78/27 53/79/27
f 95/80/26 89/61/26 92/64/26 96/81/26
f 55/71/27 56/70/27 58/82/27 57/83/27
f 97/84/28 95/85/28 96/86/28 98/87/28
f 57/88/29 58/89/29 60/90/29 59/91/29
f 99/92/30 100/93/30 101/94/30 102/95/30
f 63/96/31 64/97/31 66/98/31 65/99/31
f 67/100/21 61/101/21 62/102/21
f 67/100/21 62/102/21 50/103/21 51/104/21
f 101/94/26 100/93/26 97/84/26 98/87/26
f 59/91/27 60/90/27 64/97/27 63/96/27
f 104/105/26 103/106/26 99/92/26 102/95/26
f 65/99/27 66/98/27 51/104/27 50/103/27
f 17/58/26 68/107/26 61/101/26 4/60/26
f 16/56/32 69/108/32 68/107/32 17/58/32
f 11/54/26 70/109/26 69/108/26 16/56/26
f 9/53/33 71/110/33 70/109/33 11/54/33
f 7/48/26 72/111/26 71/112/26 9/50/26
f 6/47/34 73/113/34 72/111/34 7/48/34
f 2/43/26 74/66/26 73/114/26 6/44/26
f 1/37/11 75/67/11 74/66/11 2/43/11
f 5/40/35 76/115/35 75/67/35 1/37/35
f 8/31/36 77/116/36 76/117/36 5/35/36
f 10/34/35 78/118/35 77/116/35 8/31/35
f 12/27/37 79/119/37 78/120/37 10/29/37
f 15/25/35 80/121/35 79/119/35 12/27/35
f 18/21/38 81/122/38 80/121/38 15/25/38
f 3/24/35 67/100/35 81/122/35 18/21/35
f 61/101/21 67/100/21 3/24/21 4/60/21
f 80/121/38 81/122/38 66/98/38 64/97/38
f 79/119/35 80/121/35 64/97/35 60/90/35
f 78/120/37 79/119/37 60/90/37 58/89/37
f 77/116/35 78/118/35 58/82/35 56/70/35
f 76/117/36 77/116/36 56/70/36 54/69/36
f 75/67/35 76/115/35 54/78/35 52/77/35
f 82/65/11 75/67/11 52/77/11 49/76/11
f 83/123/26 82/65/26 49/76/26 53/79/26
f 84/124/34 83/125/34 53/68/34 55/71/34
f 85/126/26 84/124/26 55/71/26 57/83/26
f 86/127/33 85/128/33 57/88/33 59/91/33
f 87/129/26 86/127/26 59/91/26 63/96/26
f 88/130/32 87/129/32 63/96/32 65/99/32
f 62/102/26 88/130/26 65/99/26 50/103/26
f 81/122/35 67/100/35 51/104/35 66/98/35
f 72/111/39 73/113/39 90/62/39 89/61/39
f 83/125/40 84/124/40 92/64/40 91/63/40
f 73/114/41 74/66/41 93/74/41 90/73/41
f 74/66/11 82/65/11 94/75/11 93/74/11
f 82/65/42 83/123/42 91/72/42 94/75/42
f 71/112/43 72/111/43 89/61/43 95/80/43
f 84/124/44 85/126/44 96/81/44 92/64/44
f 70/109/45 71/110/45 95/85/45 97/84/45
f 85/128/46 86/127/46 98/87/46 96/86/46
f 68/107/47 69/108/47 100/93/47 99/92/47
f 87/129/48 88/130/48 102/95/48 101/94/48
f 69/108/49 70/109/49 97/84/49 100/93/49
f 86/127/50 87/129/50 101/94/50 98/87/50
f 62/102/21 61/101/21 103/106/21 104/105/21
f 61/101/51 68/107/51 99/92/51 103/106/51
f 88/130/52 62/102/52 104/105/52 102/95/52
