# Blender v3.0.0 OBJ File: ''
# www.blender.org
mtllib firetruck_beacons.mtl
o SM_Veh_Car_Ambo_01_Mesh
v 0.000000 2.034423 1.012028
v 0.110794 2.034423 1.011144
v 0.110794 2.160044 1.011144
v 0.000000 2.160044 1.012028
v 0.449397 2.034423 0.996332
v 0.636465 2.034423 0.959000
v 0.636465 2.160044 0.959000
v 0.449397 2.160044 0.996332
v 0.769590 2.032076 0.629561
v 0.779885 2.038374 0.382790
v 0.779885 2.171146 0.382790
v 0.769590 2.165776 0.629561
v 0.778464 2.044943 -1.486713
v 0.766293 2.046755 -1.710764
v 0.766293 2.178841 -1.710764
v 0.778464 2.177295 -1.486713
v -0.766293 2.046755 -1.710764
v -0.778464 2.044943 -1.486713
v -0.778464 2.177295 -1.486713
v -0.766293 2.178841 -1.710764
v -0.779885 2.038374 0.382790
v -0.769590 2.032076 0.629561
v -0.769590 2.165776 0.629561
v -0.779885 2.171146 0.382790
v -0.636465 2.034423 0.959000
v -0.449397 2.034423 0.996332
v -0.449397 2.160044 0.996332
v -0.636465 2.160044 0.959000
v -0.110794 2.034423 1.011144
v -0.110794 2.160044 1.011144
v 0.420731 2.019294 0.966085
v 0.653365 2.019294 0.919761
v 0.653365 2.175173 0.919761
v 0.420731 2.175173 0.966085
v -0.653365 2.019294 0.919761
v -0.420731 2.019294 0.966085
v -0.420731 2.175173 0.966085
v -0.653365 2.175173 0.919761
v 0.000000 2.019294 0.975789
v 0.122703 2.019294 0.974692
v 0.122703 2.175173 0.974692
v 0.000000 2.175173 0.975789
v -0.122703 2.019294 0.974692
v -0.122703 2.175173 0.974692
v 0.758337 2.030123 0.365804
v 0.746704 2.023007 0.644655
v 0.758337 2.180156 0.365804
v 0.746704 2.174088 0.644655
v 0.743285 2.038278 -1.724583
v 0.757038 2.036231 -1.471405
v 0.743285 2.187535 -1.724583
v 0.757038 2.185789 -1.471405
v -0.757038 2.036231 -1.471405
v -0.743285 2.038278 -1.724583
v -0.757038 2.185789 -1.471405
v -0.743285 2.187535 -1.724583
v -0.746704 2.023007 0.644655
v -0.758337 2.030123 0.365804
v -0.746704 2.174088 0.644655
v -0.758337 2.180156 0.365804
v -0.158380 2.582664 0.746606
v -0.158380 2.582664 0.503137
v -0.274439 2.582664 0.503137
v -0.274439 2.582664 0.746606
v 0.490849 2.582664 0.746606
v 0.490849 2.582664 0.503137
v 0.374790 2.582664 0.503137
v 0.374790 2.582664 0.746606
v -0.374790 2.582664 0.746606
v -0.374790 2.582664 0.503137
v -0.490849 2.582664 0.503137
v -0.490849 2.582664 0.746606
v 0.274439 2.582664 0.746606
v 0.274439 2.582664 0.503137
v 0.158381 2.582664 0.503137
v 0.158381 2.582664 0.746606
v 0.058029 2.582664 0.746606
v 0.058029 2.582664 0.503137
v -0.058029 2.582664 0.503137
v -0.058029 2.582664 0.746606
v -0.138512 2.431390 0.499325
v -0.138512 2.431389 0.750417
v -0.294307 2.431390 0.499325
v -0.294307 2.431389 0.750417
v 0.294307 2.431390 0.499325
v 0.294307 2.431389 0.750417
v 0.138512 2.431390 0.499325
v 0.138512 2.431389 0.750417
v 0.510717 2.431390 0.499325
v 0.510717 2.431389 0.750417
v 0.354923 2.431390 0.499325
v 0.354923 2.431389 0.750417
v -0.354922 2.431390 0.499326
v -0.354922 2.431389 0.750417
v -0.510717 2.431390 0.499326
v -0.510717 2.431389 0.750417
v 0.077898 2.431390 0.499325
v 0.077898 2.431389 0.750417
v -0.077897 2.431390 0.499325
v -0.077897 2.431389 0.750417
v -0.124659 2.449678 0.476998
v -0.124659 2.449678 0.772745
v -0.308161 2.449678 0.476998
v -0.308161 2.449678 0.772745
v 0.524570 2.449678 0.476998
v 0.524570 2.449678 0.772745
v 0.341069 2.449678 0.476998
v 0.341069 2.449678 0.772745
v -0.341068 2.449678 0.476998
v -0.341068 2.449678 0.772745
v -0.524570 2.449678 0.476998
v -0.524570 2.449678 0.772745
v 0.308161 2.449678 0.476998
v 0.308161 2.449678 0.772745
v 0.124659 2.449678 0.476998
v 0.124659 2.449678 0.772745
v 0.091751 2.449678 0.476998
v 0.091751 2.449678 0.772745
v -0.091751 2.449678 0.476998
v -0.091751 2.449678 0.772745
vt 0.865192 0.073145
vt 0.865192 0.073145
vt 0.865192 0.073145
vt 0.865192 0.073145
vt 0.865192 0.073145
vt 0.865192 0.073145
vt 0.865192 0.073145
vt 0.865192 0.073145
vt 0.865192 0.073145
vt 0.865192 0.073145
vt 0.865192 0.073145
vt 0.865192 0.073145
vt 0.865192 0.073145
vt 0.865192 0.073145
vt 0.865192 0.073145
vt 0.865192 0.073145
vt 0.865192 0.073145
vt 0.865192 0.073145
vt 0.865192 0.073145
vt 0.865192 0.073145
vt 0.865192 0.073145
vt 0.865192 0.073145
vt 0.865192 0.073145
vt 0.865192 0.073145
vt 0.865192 0.073145
vt 0.865192 0.073145
vt 0.865192 0.073145
vt 0.865192 0.073145
vt 0.865192 0.073145
vt 0.865192 0.073145
vt 0.865192 0.073145
vt 0.865192 0.073145
vt 0.865192 0.073145
vt 0.865192 0.073145
vt 0.865192 0.073145
vt 0.865192 0.073145
vt 0.865192 0.073145
vt 0.865192 0.073145
vt 0.865192 0.073145
vt 0.865192 0.073145
vt 0.865192 0.073145
vt 0.865192 0.073145
vt 0.865192 0.073145
vt 0.865192 0.073145
vt 0.865192 0.073145
vt 0.865192 0.073145
vt 0.865192 0.073145
vt 0.865192 0.073145
vt 0.865192 0.073145
vt 0.865192 0.073145
vt 0.865192 0.073145
vt 0.865192 0.073145
vt 0.865192 0.073145
vt 0.865192 0.073145
vt 0.865192 0.073145
vt 0.865192 0.073145
vt 0.865192 0.073145
vt 0.865192 0.073145
vt 0.865192 0.073145
vt 0.865192 0.073145
vt 0.865192 0.073145
vt 0.865192 0.073145
vt 0.865192 0.073145
vt 0.865192 0.073145
vt 0.865192 0.073145
vt 0.865192 0.073145
vt 0.865192 0.073145
vt 0.865192 0.073145
vt 0.865192 0.073145
vt 0.865192 0.073145
vt 0.865192 0.073145
vt 0.865192 0.073145
vt 0.865192 0.073145
vt 0.865192 0.073145
vt 0.865192 0.073145
vt 0.865192 0.073145
vt 0.865192 0.073145
vt 0.865192 0.073145
vt 0.865192 0.073145
vt 0.865192 0.073145
vt 0.865192 0.073145
vt 0.865192 0.073145
vt 0.865192 0.073145
vt 0.865192 0.073145
vt 0.865192 0.073145
vt 0.865192 0.073145
vt 0.865192 0.073145
vt 0.865192 0.073145
vt 0.865192 0.073145
vt 0.865192 0.073145
vt 0.865192 0.073145
vt 0.865192 0.073145
vt 0.865192 0.073145
vt 0.865192 0.073145
vt 0.865192 0.073145
vt 0.865192 0.073145
vt 0.865192 0.073145
vt 0.865192 0.073145
vt 0.865192 0.073145
vt 0.865192 0.073145
vt 0.865192 0.073145
vt 0.865192 0.073145
vt 0.865192 0.073145
vt 0.865192 0.073145
vt 0.865192 0.073145
vt 0.865192 0.073145
vt 0.865192 0.073145
vt 0.865192 0.073145
vt 0.865192 0.073145
vt 0.865192 0.073145
vt 0.865192 0.073145
vt 0.865192 0.073145
vt 0.865192 0.073145
vt 0.865192 0.073145
vt 0.865192 0.073145
vt 0.865192 0.073145
vt 0.865192 0.073145
vt 0.865192 0.073145
vt 0.865192 0.073145
vt 0.865192 0.073145
vn 0.0080 0.0000 1.0000
vn 0.1957 0.0000 0.9807
vn 0.9991 0.0000 0.0417
vn 0.9985 0.0000 -0.0542
vn -0.9985 0.0000 -0.0542
vn -0.9991 0.0000 0.0417
vn -0.1957 0.0000 0.9807
vn -0.0080 0.0000 1.0000
vn 0.0771 -0.9188 0.3870
vn 0.9184 0.0000 0.3956
vn 0.0771 0.9188 0.3870
vn -0.7258 0.0000 0.6879
vn -0.0771 -0.9188 0.3870
vn 0.7258 0.0000 0.6879
vn -0.0771 0.9188 0.3870
vn -0.9184 0.0000 0.3956
vn 0.0000 -0.9230 0.3847
vn 0.0033 -0.9230 0.3847
vn 0.9506 0.0000 0.3106
vn 0.0033 0.9230 0.3847
vn 0.0000 0.9230 0.3847
vn -0.0033 -0.9230 0.3847
vn -0.0033 0.9230 0.3847
vn -0.9506 0.0000 0.3106
vn 0.6048 -0.7964 0.0049
vn 0.6037 -0.7972 0.0048
vn 0.3635 -0.9316 -0.0086
vn 0.8137 -0.0000 -0.5813
vn 0.8158 -0.0000 -0.5784
vn 0.6191 0.0000 -0.7853
vn 0.6032 0.7965 0.0425
vn 0.6021 0.7973 0.0425
vn 0.3617 0.9316 0.0354
vn 0.7619 0.0000 0.6477
vn 0.7642 0.0000 0.6450
vn 0.5506 0.0000 0.8348
vn 0.5951 -0.8027 -0.0388
vn 0.5969 -0.8014 -0.0389
vn 0.3599 -0.9326 -0.0271
vn 0.7302 -0.0000 -0.6832
vn 0.7310 -0.0000 -0.6824
vn 0.5149 0.0000 -0.8573
vn 0.5978 0.8012 -0.0269
vn 0.5952 0.8031 -0.0268
vn 0.3604 0.9327 -0.0131
vn 0.7898 0.0000 0.6134
vn 0.7905 -0.0000 0.6125
vn 0.5813 0.0000 0.8137
vn -0.5969 -0.8014 -0.0389
vn -0.5951 -0.8027 -0.0388
vn -0.3599 -0.9326 -0.0271
vn -0.7905 -0.0000 0.6125
vn -0.7898 0.0000 0.6134
vn -0.5813 0.0000 0.8137
vn -0.5952 0.8031 -0.0268
vn -0.5978 0.8012 -0.0269
vn -0.3604 0.9327 -0.0131
vn -0.7310 -0.0000 -0.6824
vn -0.7302 -0.0000 -0.6832
vn -0.5149 0.0000 -0.8573
vn -0.6037 -0.7972 0.0048
vn -0.6047 -0.7964 0.0049
vn -0.3635 -0.9316 -0.0086
vn -0.7642 0.0000 0.6450
vn -0.7619 0.0000 0.6477
vn -0.5506 0.0000 0.8348
vn -0.6021 0.7973 0.0425
vn -0.6032 0.7964 0.0425
vn -0.3617 0.9316 0.0354
vn -0.8158 -0.0000 -0.5784
vn -0.8137 -0.0000 -0.5813
vn -0.6191 0.0000 -0.7853
vn 0.0000 1.0000 0.0000
vn 0.7971 -0.6038 -0.0000
vn 0.0000 -0.7736 -0.6337
vn -0.7971 -0.6038 -0.0000
vn 0.0000 -0.7736 0.6337
vn 0.0000 -0.7736 -0.6336
vn 0.9693 0.2458 0.0000
vn 0.0000 0.1929 -0.9812
vn -0.9693 0.2458 0.0000
vn 0.0000 0.1929 0.9812
usemtl lambert18.003
s 1
f 1/1/1 2/2/1 3/3/1 4/4/1
f 5/5/2 6/6/2 7/7/2 8/8/2
f 9/9/3 10/10/3 11/11/3 12/12/3
f 13/13/4 14/14/4 15/15/4 16/16/4
f 17/17/5 18/18/5 19/19/5 20/20/5
f 21/21/6 22/22/6 23/23/6 24/24/6
f 25/25/7 26/26/7 27/27/7 28/28/7
f 29/29/8 1/1/8 4/4/8 30/30/8
f 31/31/9 32/32/9 6/6/9 5/5/9
f 32/32/10 33/33/10 7/7/10 6/6/10
f 33/33/11 34/34/11 8/8/11 7/7/11
f 34/34/12 31/31/12 5/5/12 8/8/12
f 35/35/13 36/36/13 26/26/13 25/25/13
f 36/36/14 37/37/14 27/27/14 26/26/14
f 37/37/15 38/38/15 28/28/15 27/27/15
f 38/38/16 35/35/16 25/25/16 28/28/16
f 39/39/17 40/40/18 2/2/18 1/1/17
f 40/40/19 41/41/19 3/3/19 2/2/19
f 41/41/20 42/42/21 4/4/21 3/3/20
f 43/43/22 39/39/17 1/1/17 29/29/22
f 42/42/21 44/44/23 30/30/23 4/4/21
f 44/44/24 43/43/24 29/29/24 30/30/24
f 46/45/25 45/46/26 10/10/27 9/9/27
f 45/46/28 47/47/29 11/11/30 10/10/30
f 47/47/31 48/48/32 12/12/33 11/11/33
f 48/48/34 46/45/35 9/9/36 12/12/36
f 50/49/37 49/50/38 14/14/39 13/13/39
f 49/50/40 51/51/41 15/15/42 14/14/42
f 51/51/43 52/52/44 16/16/45 15/15/45
f 52/52/46 50/49/47 13/13/48 16/16/48
f 54/53/49 53/54/50 18/18/51 17/17/51
f 53/54/52 55/55/53 19/19/54 18/18/54
f 55/55/55 56/56/56 20/20/57 19/19/57
f 56/56/58 54/53/59 17/17/60 20/20/60
f 58/57/61 57/58/62 22/22/63 21/21/63
f 57/58/64 59/59/65 23/23/66 22/22/66
f 59/59/67 60/60/68 24/24/69 23/23/69
f 60/60/70 58/57/71 21/21/72 24/24/72
f 61/61/73 62/62/73 63/63/73 64/64/73
f 65/65/73 66/66/73 67/67/73 68/68/73
f 69/69/73 70/70/73 71/71/73 72/72/73
f 73/73/73 74/74/73 75/75/73 76/76/73
f 77/77/73 78/78/73 79/79/73 80/80/73
f 82/81/74 81/82/74 101/83/74 102/84/74
f 81/82/75 83/85/75 103/86/75 101/83/75
f 83/85/76 84/87/76 104/88/76 103/86/76
f 84/87/77 82/81/77 102/84/77 104/88/77
f 90/89/74 89/90/74 105/91/74 106/92/74
f 89/90/75 91/93/75 107/94/75 105/91/75
f 91/93/76 92/95/76 108/96/76 107/94/76
f 92/95/77 90/89/77 106/92/77 108/96/77
f 94/97/74 93/98/74 109/99/74 110/100/74
f 93/98/78 95/101/78 111/102/78 109/99/78
f 95/101/76 96/103/76 112/104/76 111/102/76
f 96/103/77 94/97/77 110/100/77 112/104/77
f 86/105/74 85/106/74 113/107/74 114/108/74
f 85/106/75 87/109/75 115/110/75 113/107/75
f 87/109/76 88/111/76 116/112/76 115/110/76
f 88/111/77 86/105/77 114/108/77 116/112/77
f 98/113/74 97/114/74 117/115/74 118/116/74
f 97/114/75 99/117/75 119/118/75 117/115/75
f 99/117/76 100/119/76 120/120/76 119/118/76
f 100/119/77 98/113/77 118/116/77 120/120/77
f 102/84/79 101/83/79 62/62/79 61/61/79
f 101/83/80 103/86/80 63/63/80 62/62/80
f 103/86/81 104/88/81 64/64/81 63/63/81
f 104/88/82 102/84/82 61/61/82 64/64/82
f 106/92/79 105/91/79 66/66/79 65/65/79
f 105/91/80 107/94/80 67/67/80 66/66/80
f 107/94/81 108/96/81 68/68/81 67/67/81
f 108/96/82 106/92/82 65/65/82 68/68/82
f 110/100/79 109/99/79 70/70/79 69/69/79
f 109/99/80 111/102/80 71/71/80 70/70/80
f 111/102/81 112/104/81 72/72/81 71/71/81
f 112/104/82 110/100/82 69/69/82 72/72/82
f 114/108/79 113/107/79 74/74/79 73/73/79
f 113/107/80 115/110/80 75/75/80 74/74/80
f 115/110/81 116/112/81 76/76/81 75/75/81
f 116/112/82 114/108/82 73/73/82 76/76/82
f 118/116/79 117/115/79 78/78/79 77/77/79
f 117/115/80 119/118/80 79/79/80 78/78/80
f 119/118/81 120/120/81 80/80/81 79/79/81
f 120/120/82 118/116/82 77/77/82 80/80/82
