# Blender v3.0.0 OBJ File: ''
# www.blender.org
mtllib firetruck_lights.mtl
o SM_Veh_Car_Ambo_01_Mesh.001
v 1.009734 0.944321 -2.209796
v 0.954682 0.944321 -2.274048
v 0.852053 0.944322 -2.277337
v 0.881980 0.720513 2.447083
v 0.721119 0.720513 2.447083
v 0.950668 0.720513 2.428859
v 0.982214 0.856391 2.309297
v 0.721119 0.856391 2.447083
v 0.881980 0.856391 2.447083
v 0.950668 0.856391 2.428860
v 0.881980 0.915014 2.429606
v 0.730207 0.915014 2.429606
v 0.730207 0.865707 2.429606
v 0.881980 0.865707 2.429606
v 0.941627 0.865707 2.405711
v 0.963451 0.865707 2.328712
v 1.004321 0.797272 -2.186393
v 1.004321 0.944321 -2.186393
v 0.838886 0.944322 -2.257261
v 0.838886 0.797273 -2.257261
v 1.009734 0.803231 -2.209796
v 0.954682 0.803231 -2.274048
v 0.852053 0.803232 -2.277337
v -1.009734 0.944321 -2.209796
v -0.954682 0.944321 -2.274048
v -0.852053 0.944322 -2.277337
v -0.721119 0.720513 2.447083
v -0.881980 0.720513 2.447083
v -0.950668 0.720513 2.428859
v -0.982214 0.856391 2.309297
v -0.721119 0.856391 2.447083
v -0.881980 0.856391 2.447083
v -0.950668 0.856391 2.428860
v -0.881980 0.915014 2.429606
v -0.881980 0.865707 2.429606
v -0.730207 0.865707 2.429606
v -0.730207 0.915014 2.429606
v -0.941627 0.865707 2.405711
v -0.963451 0.865707 2.328712
v -1.004321 0.944321 -2.186393
v -1.004321 0.797272 -2.186393
v -0.838886 0.797273 -2.257261
v -0.838886 0.944322 -2.257261
v -1.009734 0.803231 -2.209796
v -0.954682 0.803231 -2.274048
v -0.852053 0.803232 -2.277337
vt 0.314302 0.035147
vt 0.314302 0.035147
vt 0.314302 0.035147
vt 0.314302 0.035147
vt 0.314302 0.035147
vt 0.314302 0.035147
vt 0.314302 0.035147
vt 0.311203 0.035919
vt 0.311203 0.035919
vt 0.311203 0.035919
vt 0.311203 0.035919
vt 0.314302 0.035147
vt 0.314302 0.035147
vt 0.314302 0.035147
vt 0.314302 0.035147
vt 0.422411 0.034550
vt 0.422411 0.034550
vt 0.422411 0.034549
vt 0.422411 0.034549
vt 0.422411 0.034550
vt 0.422411 0.034549
vt 0.422411 0.034549
vt 0.422411 0.034550
vt 0.422411 0.034549
vt 0.422411 0.034550
vt 0.314302 0.035147
vt 0.314302 0.035147
vt 0.314302 0.035147
vt 0.314302 0.035147
vt 0.314302 0.035147
vt 0.314302 0.035147
vt 0.314302 0.035147
vt 0.311203 0.035919
vt 0.311203 0.035919
vt 0.311203 0.035919
vt 0.311203 0.035919
vt 0.314302 0.035147
vt 0.314302 0.035147
vt 0.314302 0.035147
vt 0.314302 0.035147
vt 0.422411 0.034550
vt 0.422411 0.034549
vt 0.422411 0.034549
vt 0.422411 0.034550
vt 0.422411 0.034550
vt 0.422411 0.034549
vt 0.422411 0.034550
vt 0.422411 0.034549
vt 0.422411 0.034550
vt 0.422411 0.034549
vn 0.0000 -0.0000 1.0000
vn 0.2564 -0.0000 0.9666
vn 0.9669 -0.0000 0.2551
vn 0.0000 0.8825 0.4704
vn 0.1279 0.9120 0.3898
vn 0.5371 0.8308 0.1458
vn 0.9743 0.0000 0.2253
vn 0.7594 0.0000 -0.6506
vn 0.0320 0.0000 -0.9995
vn -0.8362 0.0000 -0.5484
vn -0.2564 -0.0000 0.9666
vn -0.9669 -0.0000 0.2551
vn -0.1279 0.9120 0.3898
vn -0.5371 0.8308 0.1458
vn -0.9743 0.0000 0.2253
vn -0.7594 0.0000 -0.6506
vn -0.0320 0.0000 -0.9995
vn 0.8362 0.0000 -0.5484
usemtl Material.002
s 1
f 9/1/1 8/2/1 5/3/1 4/4/1
f 10/5/2 9/1/2 4/4/2 6/6/2
f 7/7/3 10/5/3 6/6/3
f 11/8/1 12/9/1 13/10/1 14/11/1
f 8/2/4 9/1/4 14/12/4 13/13/4
f 9/1/5 10/5/5 15/14/5 14/12/5
f 10/5/6 7/7/6 16/15/6 15/14/6
f 1/16/7 18/17/7 17/18/7 21/19/7
f 2/20/8 1/16/8 21/19/8 22/21/8
f 22/21/9 23/22/9 3/23/9 2/20/9
f 23/22/10 20/24/10 19/25/10 3/23/10
f 32/26/1 28/27/1 27/28/1 31/29/1
f 33/30/11 29/31/11 28/27/11 32/26/11
f 30/32/12 29/31/12 33/30/12
f 34/33/1 35/34/1 36/35/1 37/36/1
f 31/29/4 36/37/4 35/38/4 32/26/4
f 32/26/13 35/38/13 38/39/13 33/30/13
f 33/30/14 38/39/14 39/40/14 30/32/14
f 24/41/15 44/42/15 41/43/15 40/44/15
f 25/45/16 45/46/16 44/42/16 24/41/16
f 45/46/17 25/45/17 26/47/17 46/48/17
f 46/48/18 26/47/18 43/49/18 42/50/18
