# Blender v2.93.5 OBJ File: ''
# www.blender.org
mtllib police_car_beacons.mtl
o SM_Veh_Car_Police_01_Mesh.001
v -0.157408 1.915319 -0.086666
v -0.157408 1.915319 -0.291876
v -0.272752 1.915319 -0.291876
v -0.272752 1.915319 -0.086666
v 0.487833 1.915319 -0.086666
v 0.487833 1.915319 -0.291876
v 0.372487 1.915319 -0.291876
v 0.372487 1.915319 -0.086666
v -0.372487 1.915319 -0.086666
v -0.372487 1.915319 -0.291877
v -0.487833 1.915319 -0.291877
v -0.487833 1.915319 -0.086666
v 0.272752 1.915319 -0.086666
v 0.272752 1.915319 -0.291877
v 0.157407 1.915319 -0.291877
v 0.157407 1.915319 -0.086666
v 0.057673 1.915319 -0.086665
v 0.057673 1.915319 -0.291876
v -0.057673 1.915319 -0.291876
v -0.057673 1.915319 -0.086665
v -0.137661 1.775065 -0.295089
v -0.137661 1.775065 -0.083453
v -0.292499 1.775065 -0.295089
v -0.292499 1.775065 -0.083453
v 0.292498 1.775065 -0.295089
v 0.292498 1.775065 -0.083453
v 0.137661 1.775065 -0.295089
v 0.137661 1.775065 -0.083453
v 0.507578 1.775065 -0.295089
v 0.507578 1.775065 -0.083453
v 0.352741 1.775065 -0.295089
v 0.352741 1.775065 -0.083453
v -0.352741 1.775065 -0.295089
v -0.352741 1.775065 -0.083453
v -0.507578 1.775065 -0.295089
v -0.507578 1.775065 -0.083453
v 0.077419 1.775065 -0.295089
v 0.077419 1.775065 -0.083453
v -0.077419 1.775065 -0.295089
v -0.077419 1.775065 -0.083453
v -0.123893 1.792021 -0.313908
v -0.123893 1.792021 -0.064634
v -0.306267 1.792021 -0.313908
v -0.306267 1.792021 -0.064634
v 0.521346 1.792021 -0.313908
v 0.521346 1.792021 -0.064634
v 0.338972 1.792021 -0.313908
v 0.338972 1.792021 -0.064634
v -0.338973 1.792021 -0.313908
v -0.338973 1.792021 -0.064634
v -0.521348 1.792021 -0.313908
v -0.521348 1.792021 -0.064634
v 0.306267 1.792021 -0.313908
v 0.306267 1.792021 -0.064634
v 0.123892 1.792021 -0.313908
v 0.123892 1.792021 -0.064634
v 0.091187 1.792021 -0.313908
v 0.091187 1.792021 -0.064634
v -0.091187 1.792021 -0.313908
v -0.091187 1.792021 -0.064634
vt 0.317133 0.033800
vt 0.317133 0.033800
vt 0.317133 0.033800
vt 0.317133 0.033800
vt 0.421787 0.034458
vt 0.421787 0.034458
vt 0.421787 0.034458
vt 0.421787 0.034458
vt 0.421787 0.034458
vt 0.421787 0.034458
vt 0.421787 0.034458
vt 0.421787 0.034458
vt 0.317133 0.033800
vt 0.317133 0.033800
vt 0.317133 0.033800
vt 0.317133 0.033800
vt 0.421787 0.034458
vt 0.421787 0.034458
vt 0.421787 0.034458
vt 0.421787 0.034458
vt 0.317133 0.033800
vt 0.317133 0.033800
vt 0.317133 0.033800
vt 0.317133 0.033800
vt 0.317133 0.033800
vt 0.317133 0.033800
vt 0.317133 0.033800
vt 0.317133 0.033800
vt 0.421787 0.034459
vt 0.421787 0.034459
vt 0.421787 0.034459
vt 0.421787 0.034459
vt 0.421787 0.034459
vt 0.421787 0.034459
vt 0.421787 0.034459
vt 0.421787 0.034459
vt 0.421787 0.034459
vt 0.421787 0.034459
vt 0.421787 0.034459
vt 0.421787 0.034459
vt 0.421787 0.034459
vt 0.421787 0.034459
vt 0.421787 0.034459
vt 0.421787 0.034459
vt 0.317133 0.033800
vt 0.317133 0.033800
vt 0.317133 0.033800
vt 0.317133 0.033800
vt 0.317133 0.033800
vt 0.317133 0.033800
vt 0.317133 0.033800
vt 0.317133 0.033800
vt 0.421787 0.034459
vt 0.421787 0.034459
vt 0.421787 0.034459
vt 0.421787 0.034459
vt 0.421787 0.034459
vt 0.421787 0.034459
vt 0.421787 0.034459
vt 0.421787 0.034459
vn 0.0000 1.0000 0.0000
vn 0.7763 -0.6303 0.0000
vn 0.0000 -0.7429 -0.6694
vn -0.7763 -0.6303 0.0000
vn 0.0000 -0.7429 0.6694
vn -0.7763 -0.6304 0.0000
vn 0.7763 -0.6304 0.0000
vn 0.9650 0.2623 0.0000
vn 0.0000 0.1759 -0.9844
vn -0.9650 0.2623 0.0000
vn 0.0000 0.1759 0.9844
usemtl lambert18.025
s 1
f 1/1/1 2/2/1 3/3/1 4/4/1
f 5/5/1 6/6/1 7/7/1 8/8/1
f 9/9/1 10/10/1 11/11/1 12/12/1
f 13/13/1 14/14/1 15/15/1 16/16/1
f 17/17/1 18/18/1 19/19/1 20/20/1
f 22/21/2 21/22/2 41/23/2 42/24/2
f 21/22/3 23/25/3 43/26/3 41/23/3
f 23/25/4 24/27/4 44/28/4 43/26/4
f 24/27/5 22/21/5 42/24/5 44/28/5
f 30/29/2 29/30/2 45/31/2 46/32/2
f 29/30/3 31/33/3 47/34/3 45/31/3
f 31/33/6 32/35/6 48/36/6 47/34/6
f 32/35/5 30/29/5 46/32/5 48/36/5
f 34/37/2 33/38/2 49/39/2 50/40/2
f 33/38/3 35/41/3 51/42/3 49/39/3
f 35/41/6 36/43/6 52/44/6 51/42/6
f 36/43/5 34/37/5 50/40/5 52/44/5
f 26/45/7 25/46/7 53/47/7 54/48/7
f 25/46/3 27/49/3 55/50/3 53/47/3
f 27/49/6 28/51/6 56/52/6 55/50/6
f 28/51/5 26/45/5 54/48/5 56/52/5
f 38/53/2 37/54/2 57/55/2 58/56/2
f 37/54/3 39/57/3 59/58/3 57/55/3
f 39/57/4 40/59/4 60/60/4 59/58/4
f 40/59/5 38/53/5 58/56/5 60/60/5
f 42/24/8 41/23/8 2/2/8 1/1/8
f 41/23/9 43/26/9 3/3/9 2/2/9
f 43/26/10 44/28/10 4/4/10 3/3/10
f 44/28/11 42/24/11 1/1/11 4/4/11
f 46/32/8 45/31/8 6/6/8 5/5/8
f 45/31/9 47/34/9 7/7/9 6/6/9
f 47/34/10 48/36/10 8/8/10 7/7/10
f 48/36/11 46/32/11 5/5/11 8/8/11
f 50/40/8 49/39/8 10/10/8 9/9/8
f 49/39/9 51/42/9 11/11/9 10/10/9
f 51/42/10 52/44/10 12/12/10 11/11/10
f 52/44/11 50/40/11 9/9/11 12/12/11
f 54/48/8 53/47/8 14/14/8 13/13/8
f 53/47/9 55/50/9 15/15/9 14/14/9
f 55/50/10 56/52/10 16/16/10 15/15/10
f 56/52/11 54/48/11 13/13/11 16/16/11
f 58/56/8 57/55/8 18/18/8 17/17/8
f 57/55/9 59/58/9 19/19/9 18/18/9
f 59/58/10 60/60/10 20/20/10 19/19/10
f 60/60/11 58/56/11 17/17/11 20/20/11
