# Blender v2.93.5 OBJ File: ''
# www.blender.org
mtllib police_car_beacons_wite.mtl
o SM_Veh_Car_Police_01_Mesh.001
v -0.157408 1.915319 -0.086666
v -0.157408 1.915319 -0.291876
v -0.272752 1.915319 -0.291876
v -0.272752 1.915319 -0.086666
v 0.272752 1.915319 -0.086666
v 0.272752 1.915319 -0.291877
v 0.157407 1.915319 -0.291877
v 0.157407 1.915319 -0.086666
v -0.137661 1.775065 -0.083453
v -0.137661 1.775065 -0.295089
v -0.123893 1.792021 -0.313908
v -0.123893 1.792021 -0.064634
v -0.292499 1.775065 -0.295089
v -0.306267 1.792021 -0.313908
v -0.292499 1.775065 -0.083453
v -0.306267 1.792021 -0.064634
v 0.292498 1.775065 -0.083453
v 0.292498 1.775065 -0.295089
v 0.306267 1.792021 -0.313908
v 0.306267 1.792021 -0.064634
v 0.137661 1.775065 -0.295089
v 0.123892 1.792021 -0.313908
v 0.137661 1.775065 -0.083453
v 0.123892 1.792021 -0.064634
vt 0.317133 0.033800
vt 0.317133 0.033800
vt 0.317133 0.033800
vt 0.317133 0.033800
vt 0.317133 0.033800
vt 0.317133 0.033800
vt 0.317133 0.033800
vt 0.317133 0.033800
vt 0.317133 0.033800
vt 0.317133 0.033800
vt 0.317133 0.033800
vt 0.317133 0.033800
vt 0.317133 0.033800
vt 0.317133 0.033800
vt 0.317133 0.033800
vt 0.317133 0.033800
vt 0.317133 0.033800
vt 0.317133 0.033800
vt 0.317133 0.033800
vt 0.317133 0.033800
vt 0.317133 0.033800
vt 0.317133 0.033800
vt 0.317133 0.033800
vt 0.317133 0.033800
vn 0.0000 1.0000 0.0000
vn 0.7763 -0.6303 0.0000
vn 0.0000 -0.7429 -0.6694
vn -0.7763 -0.6303 0.0000
vn 0.0000 -0.7429 0.6694
vn 0.7763 -0.6304 0.0000
vn -0.7763 -0.6304 0.0000
vn 0.9650 0.2623 0.0000
vn 0.0000 0.1759 -0.9844
vn -0.9650 0.2623 0.0000
vn 0.0000 0.1759 0.9844
usemtl lambert18.025
s 1
f 1/1/1 2/2/1 3/3/1 4/4/1
f 5/5/1 6/6/1 7/7/1 8/8/1
f 9/9/2 10/10/2 11/11/2 12/12/2
f 10/10/3 13/13/3 14/14/3 11/11/3
f 13/13/4 15/15/4 16/16/4 14/14/4
f 15/15/5 9/9/5 12/12/5 16/16/5
f 17/17/6 18/18/6 19/19/6 20/20/6
f 18/18/3 21/21/3 22/22/3 19/19/3
f 21/21/7 23/23/7 24/24/7 22/22/7
f 23/23/5 17/17/5 20/20/5 24/24/5
f 12/12/8 11/11/8 2/2/8 1/1/8
f 11/11/9 14/14/9 3/3/9 2/2/9
f 14/14/10 16/16/10 4/4/10 3/3/10
f 16/16/11 12/12/11 1/1/11 4/4/11
f 20/20/8 19/19/8 6/6/8 5/5/8
f 19/19/9 22/22/9 7/7/9 6/6/9
f 22/22/10 24/24/10 8/8/10 7/7/10
f 24/24/11 20/20/11 5/5/11 8/8/11
