# Blender v2.93.5 OBJ File: ''
# www.blender.org
mtllib van_glass.mtl
o SM_Veh_Car_Van_Glass_Mesh.003
v 0.000000 1.639526 1.426484
v 0.362091 1.639789 1.418963
v 0.362595 1.886632 1.153705
v 0.000000 1.886364 1.155666
v 0.695899 1.640528 1.378501
v 0.792036 1.641058 1.345353
v 0.709060 1.887424 1.133982
v 0.361648 1.350581 1.658699
v 0.000000 1.350251 1.669782
v 0.632270 1.351321 1.604434
v 0.848208 1.351731 1.549280
v -0.362595 1.886632 1.153705
v -0.362092 1.639789 1.418963
v -0.695899 1.640528 1.378501
v -0.709060 1.887424 1.133982
v -0.792036 1.641058 1.345353
v -0.361651 1.350581 1.658699
v -0.632270 1.351321 1.604434
v -0.848208 1.351731 1.549280
v 0.872388 1.648280 1.240090
v 0.872388 1.648280 0.440095
v 0.807460 1.873518 0.440095
v 0.807460 1.873518 1.039561
v 0.923904 1.384074 1.351408
v 0.923904 1.384074 0.440095
v -0.872388 1.648280 1.240090
v -0.807460 1.873518 1.039561
v -0.807460 1.873518 0.440095
v -0.872388 1.648280 0.440095
v -0.923904 1.384074 0.440095
v -0.923904 1.384074 1.351408
vt 0.459656 0.084608
vt 0.459656 0.084608
vt 0.459656 0.084608
vt 0.459656 0.084608
vt 0.459656 0.084608
vt 0.459656 0.084608
vt 0.459656 0.084608
vt 0.459656 0.084608
vt 0.459656 0.084608
vt 0.459656 0.084608
vt 0.459656 0.084608
vt 0.459656 0.084608
vt 0.459656 0.084608
vt 0.459656 0.084608
vt 0.459656 0.084608
vt 0.459656 0.084608
vt 0.459656 0.084608
vt 0.459656 0.084608
vt 0.459656 0.084608
vt 0.459656 0.084608
vt 0.459656 0.084608
vt 0.459656 0.084608
vt 0.459656 0.084608
vt 0.459656 0.084608
vt 0.459656 0.084608
vt 0.459656 0.084608
vt 0.459656 0.084608
vt 0.459656 0.084608
vt 0.459656 0.084608
vt 0.459656 0.084608
vt 0.459656 0.084608
vn 0.0000 0.7356 0.6774
vn 0.0083 0.7356 0.6774
vn 0.2365 0.6773 0.6966
vn 0.0599 0.7162 0.6953
vn 0.0192 0.6408 0.7675
vn 0.1207 0.6144 0.7797
vn 0.2202 0.5799 0.7843
vn -0.0083 0.7356 0.6774
vn -0.2365 0.6773 0.6966
vn -0.0599 0.7162 0.6953
vn -0.0192 0.6408 0.7675
vn -0.1207 0.6144 0.7797
vn -0.2202 0.5799 0.7843
vn 0.9609 0.2770 0.0000
vn 0.9815 0.1914 0.0000
vn -0.9609 0.2770 0.0000
vn -0.9815 0.1914 0.0000
usemtl lambert18.006
s 1
f 1/1/1 2/2/2 3/3/2 4/4/1
f 5/5/3 6/6/3 7/7/3
f 3/3/4 2/2/4 5/5/4 7/7/4
f 8/8/5 2/2/5 1/1/5 9/9/5
f 10/10/6 5/5/6 2/2/6 8/8/6
f 6/6/7 5/5/7 10/10/7 11/11/7
f 1/1/1 4/4/1 12/12/8 13/13/8
f 14/14/9 15/15/9 16/16/9
f 12/12/10 15/15/10 14/14/10 13/13/10
f 17/17/11 9/9/11 1/1/11 13/13/11
f 18/18/12 17/17/12 13/13/12 14/14/12
f 16/16/13 19/19/13 18/18/13 14/14/13
f 20/20/14 21/21/14 22/22/14 23/23/14
f 21/21/15 20/20/15 24/24/15 25/25/15
f 26/26/16 27/27/16 28/28/16 29/29/16
f 29/29/17 30/30/17 31/31/17 26/26/17
